<?xml version="1.0" encoding="us-ascii" standalone="no"?><svg xmlns="http://www.w3.org/2000/svg" xmlns:xlink="http://www.w3.org/1999/xlink" contentStyleType="text/css" height="3167px" preserveAspectRatio="none" style="width:567px;height:3167px;background:#FFFFFF;" version="1.1" viewBox="0 0 567 3167" width="567px" zoomAndPan="magnify"><defs/><g><rect fill="none" height="1049.0394" style="stroke:#000000;stroke-width:1.5;" width="398" x="76" y="11"/><path d="M250,11 L250,20.7999 L240,30.7999 L76,30.7999 " fill="none" style="stroke:#000000;stroke-width:1.5;"/><text fill="#000000" font-family="sans-serif" font-size="14" font-weight="bold" lengthAdjust="spacing" textLength="58" x="79" y="25.0059">function</text><text fill="#000000" font-family="sans-serif" font-size="14" lengthAdjust="spacing" textLength="102" x="141" y="25.0059">runBacktracking</text><polygon fill="#F1F1F1" points="228.5,40.7999,334.5,40.7999,324.5,104.0002,218.5,104.0002" style="stroke:#181818;stroke-width:0.5;"/><text fill="#000000" font-family="sans-serif" font-size="12" lengthAdjust="spacing" textLength="36" x="228.5" y="61.948">alleles</text><text fill="#000000" font-family="sans-serif" font-size="12" lengthAdjust="spacing" textLength="81" x="231.5" y="76.3481">totalOfCourses</text><text fill="#000000" font-family="sans-serif" font-size="12" lengthAdjust="spacing" textLength="93" x="231.5" y="90.7482">totalOfProfessors</text><rect fill="#F1F1F1" height="48.8002" style="stroke:#181818;stroke-width:0.5;" width="268" x="142.5" y="124.0002"/><text fill="#000000" font-family="sans-serif" font-size="12" lengthAdjust="spacing" textLength="248" x="152.5" y="145.1483">matrix = int[totalOfCourses][totalOfProfessors]]</text><text fill="#000000" font-family="sans-serif" font-size="12" lengthAdjust="spacing" textLength="26" x="152.5" y="159.5484">:i = 0</text><rect fill="#F1F1F1" height="34.4001" style="stroke:#181818;stroke-width:0.5;" width="297" x="128" y="248.5194"/><text fill="#000000" font-family="sans-serif" font-size="12" lengthAdjust="spacing" textLength="277" x="138" y="269.6674">professorIndex = alleles[i].getProfessor().getIndex()</text><rect fill="#F1F1F1" height="34.4001" style="stroke:#181818;stroke-width:0.5;" width="271" x="141" y="302.9195"/><text fill="#000000" font-family="sans-serif" font-size="12" lengthAdjust="spacing" textLength="251" x="151" y="324.0675">courseIndex = alleles[i].getCourse().getIndex()</text><rect fill="#F1F1F1" height="34.4001" style="stroke:#181818;stroke-width:0.5;" width="333" x="110" y="366.2196"/><text fill="#000000" font-family="sans-serif" font-size="12" lengthAdjust="spacing" textLength="313" x="120" y="387.3677">matrix[courseIndex][professorIndex] = alleles[i].getGrade()</text><rect fill="#F1F1F1" height="34.4001" style="stroke:#181818;stroke-width:0.5;" width="37" x="258" y="420.6197"/><text fill="#000000" font-family="sans-serif" font-size="12" lengthAdjust="spacing" textLength="17" x="268" y="441.7678">i++</text><polygon fill="#F1F1F1" points="239,192.8004,314,192.8004,326,204.8004,314,216.8004,239,216.8004,227,204.8004,239,192.8004" style="stroke:#181818;stroke-width:0.5;"/><text fill="#000000" font-family="sans-serif" font-size="11" lengthAdjust="spacing" textLength="18" x="280.5" y="227.0194">yes</text><text fill="#000000" font-family="sans-serif" font-size="11" lengthAdjust="spacing" textLength="75" x="239" y="208.4194">i &lt; alleles.size()</text><rect fill="#F1F1F1" height="34.4001" style="stroke:#181818;stroke-width:0.5;" width="278" x="137.5" y="497.0198"/><text fill="#000000" font-family="sans-serif" font-size="12" lengthAdjust="spacing" textLength="258" x="147.5" y="518.1679">bestCombination = getBestCombination(matrix)</text><ellipse cx="276.5" cy="561.4199" fill="#F1F1F1" rx="10" ry="10" style="stroke:#181818;stroke-width:0.5;"/><path d="M274.2344,562.1543 L277.1094,562.1543 C278.1094,562.1543 278.5469,562.6387 278.5469,563.7168 L278.5469,564.498 C278.5469,565.0293 278.6406,565.5605 278.7969,565.9199 L280.1406,565.9199 L280.1406,565.6387 C279.7344,565.3574 279.6406,565.0449 279.625,563.873 C279.6094,562.4355 279.375,562.0137 278.4375,561.6074 C279.4219,561.1074 279.8125,560.5137 279.8125,559.5137 C279.8125,557.998 278.875,557.1699 277.1406,557.1699 L273.1094,557.1699 L273.1094,565.9199 L274.2344,565.9199 L274.2344,562.1543 Z M274.2344,561.1699 L274.2344,558.1543 L276.9375,558.1543 C277.5625,558.1543 277.9219,558.248 278.1875,558.498 C278.4844,558.748 278.6406,559.1387 278.6406,559.6543 C278.6406,560.7012 278.125,561.1699 276.9375,561.1699 L274.2344,561.1699 Z " fill="#000000"/><ellipse cx="276.5" cy="591.4199" fill="#F1F1F1" rx="10" ry="10" style="stroke:#181818;stroke-width:0.5;"/><path d="M274.2344,592.1543 L277.1094,592.1543 C278.1094,592.1543 278.5469,592.6387 278.5469,593.7168 L278.5469,594.498 C278.5469,595.0293 278.6406,595.5605 278.7969,595.9199 L280.1406,595.9199 L280.1406,595.6387 C279.7344,595.3574 279.6406,595.0449 279.625,593.873 C279.6094,592.4355 279.375,592.0137 278.4375,591.6074 C279.4219,591.1074 279.8125,590.5137 279.8125,589.5137 C279.8125,587.998 278.875,587.1699 277.1406,587.1699 L273.1094,587.1699 L273.1094,595.9199 L274.2344,595.9199 L274.2344,592.1543 Z M274.2344,591.1699 L274.2344,588.1543 L276.9375,588.1543 C277.5625,588.1543 277.9219,588.248 278.1875,588.498 C278.4844,588.748 278.6406,589.1387 278.6406,589.6543 C278.6406,590.7012 278.125,591.1699 276.9375,591.1699 L274.2344,591.1699 Z " fill="#000000"/><rect fill="#F1F1F1" height="34.4001" rx="12.5" ry="12.5" style="stroke:#181818;stroke-width:0.5;" width="46" x="253.5" y="621.4199"/><text fill="#000000" font-family="sans-serif" font-size="12" lengthAdjust="spacing" textLength="26" x="263.5" y="642.568">i = 0]</text><rect fill="#F1F1F1" height="34.4001" style="stroke:#181818;stroke-width:0.5;" width="202" x="175.5" y="731.5389"/><text fill="#000000" font-family="sans-serif" font-size="12" lengthAdjust="spacing" textLength="182" x="185.5" y="752.687">print(matrix[i][bestCombination[i]])</text><rect fill="#F1F1F1" height="34.4001" style="stroke:#181818;stroke-width:0.5;" width="37" x="258" y="794.8391"/><text fill="#000000" font-family="sans-serif" font-size="12" lengthAdjust="spacing" textLength="17" x="268" y="815.9872">i++</text><polygon fill="#F1F1F1" points="213,675.82,340,675.82,352,687.82,340,699.82,213,699.82,201,687.82,213,675.82" style="stroke:#181818;stroke-width:0.5;"/><text fill="#000000" font-family="sans-serif" font-size="11" lengthAdjust="spacing" textLength="18" x="280.5" y="710.0389">yes</text><text fill="#000000" font-family="sans-serif" font-size="11" lengthAdjust="spacing" textLength="127" x="213" y="691.439">i &lt; bestCombination.length</text><rect fill="#F1F1F1" height="34.4001" style="stroke:#181818;stroke-width:0.5;" width="248" x="152.5" y="871.2392"/><text fill="#000000" font-family="sans-serif" font-size="12" lengthAdjust="spacing" textLength="228" x="162.5" y="892.3873">print(getFitness(bestCombination, matrix))</text><rect fill="#F1F1F1" height="34.4001" style="stroke:#181818;stroke-width:0.5;" width="163" x="195" y="969.6393"/><text fill="#000000" font-family="sans-serif" font-size="12" lengthAdjust="spacing" textLength="143" x="205" y="990.7874">print(totalOfCombinations)</text><polygon fill="#F1F1F1" points="225.5,925.6393,327.5,925.6393,339.5,937.6393,327.5,949.6393,225.5,949.6393,213.5,937.6393,225.5,925.6393" style="stroke:#181818;stroke-width:0.5;"/><text fill="#000000" font-family="sans-serif" font-size="11" lengthAdjust="spacing" textLength="102" x="225.5" y="941.2583">App.verbose) is (yes</text><polygon fill="#F1F1F1" points="276.5,1024.0394,288.5,1036.0394,276.5,1048.0394,264.5,1036.0394,276.5,1024.0394" style="stroke:#181818;stroke-width:0.5;"/><rect fill="none" height="385.2005" style="stroke:#000000;stroke-width:1.5;" width="448" x="52.5" y="1070.0394"/><path d="M252.5,1070.0394 L252.5,1079.8393 L242.5,1089.8393 L52.5,1089.8393 " fill="none" style="stroke:#000000;stroke-width:1.5;"/><text fill="#000000" font-family="sans-serif" font-size="14" font-weight="bold" lengthAdjust="spacing" textLength="58" x="55.5" y="1084.0453">function</text><text fill="#000000" font-family="sans-serif" font-size="14" lengthAdjust="spacing" textLength="128" x="117.5" y="1084.0453">getBestCombination</text><ellipse cx="276.5" cy="1116.8393" fill="#222222" rx="10" ry="10" style="stroke:#222222;stroke-width:1.0;"/><polygon fill="#F1F1F1" points="260,1146.8393,303,1146.8393,293,1181.2394,250,1181.2394" style="stroke:#181818;stroke-width:0.5;"/><text fill="#000000" font-family="sans-serif" font-size="12" lengthAdjust="spacing" textLength="33" x="260" y="1167.9874">matrix</text><rect fill="#F1F1F1" height="63.2003" style="stroke:#181818;stroke-width:0.5;" width="215" x="169" y="1201.2394"/><text fill="#000000" font-family="sans-serif" font-size="12" lengthAdjust="spacing" textLength="195" x="179" y="1222.3875">bestCombination = int[matrix.length]</text><text fill="#000000" font-family="sans-serif" font-size="12" lengthAdjust="spacing" textLength="169" x="179" y="1236.7876">combination = int[matrix.length]</text><text fill="#000000" font-family="sans-serif" font-size="12" lengthAdjust="spacing" textLength="169" x="179" y="1251.1877">professors = int[matrix[0].length</text><rect fill="#F1F1F1" height="34.4001" style="stroke:#181818;stroke-width:0.5;" width="428" x="62.5" y="1284.4397"/><text fill="#000000" font-family="sans-serif" font-size="12" lengthAdjust="spacing" textLength="408" x="72.5" y="1305.5878">generateCombination(matrix, 0, combination, bestCombination, professors)</text><ellipse cx="276.5" cy="1348.8398" fill="#F1F1F1" rx="10" ry="10" style="stroke:#181818;stroke-width:0.5;"/><path d="M274.2344,1349.5742 L277.1094,1349.5742 C278.1094,1349.5742 278.5469,1350.0586 278.5469,1351.1367 L278.5469,1351.9179 C278.5469,1352.4492 278.6406,1352.9804 278.7969,1353.3398 L280.1406,1353.3398 L280.1406,1353.0586 C279.7344,1352.7773 279.6406,1352.4648 279.625,1351.2929 C279.6094,1349.8554 279.375,1349.4336 278.4375,1349.0273 C279.4219,1348.5273 279.8125,1347.9336 279.8125,1346.9336 C279.8125,1345.4179 278.875,1344.5898 277.1406,1344.5898 L273.1094,1344.5898 L273.1094,1353.3398 L274.2344,1353.3398 L274.2344,1349.5742 Z M274.2344,1348.5898 L274.2344,1345.5742 L276.9375,1345.5742 C277.5625,1345.5742 277.9219,1345.6679 278.1875,1345.9179 C278.4844,1346.1679 278.6406,1346.5586 278.6406,1347.0742 C278.6406,1348.1211 278.125,1348.5898 276.9375,1348.5898 L274.2344,1348.5898 Z " fill="#000000"/><ellipse cx="276.5" cy="1378.8398" fill="#F1F1F1" rx="10" ry="10" style="stroke:#181818;stroke-width:0.5;"/><path d="M274.2344,1379.5742 L277.1094,1379.5742 C278.1094,1379.5742 278.5469,1380.0586 278.5469,1381.1367 L278.5469,1381.9179 C278.5469,1382.4492 278.6406,1382.9804 278.7969,1383.3398 L280.1406,1383.3398 L280.1406,1383.0586 C279.7344,1382.7773 279.6406,1382.4648 279.625,1381.2929 C279.6094,1379.8554 279.375,1379.4336 278.4375,1379.0273 C279.4219,1378.5273 279.8125,1377.9336 279.8125,1376.9336 C279.8125,1375.4179 278.875,1374.5898 277.1406,1374.5898 L273.1094,1374.5898 L273.1094,1383.3398 L274.2344,1383.3398 L274.2344,1379.5742 Z M274.2344,1378.5898 L274.2344,1375.5742 L276.9375,1375.5742 C277.5625,1375.5742 277.9219,1375.6679 278.1875,1375.9179 C278.4844,1376.1679 278.6406,1376.5586 278.6406,1377.0742 C278.6406,1378.1211 278.125,1378.5898 276.9375,1378.5898 L274.2344,1378.5898 Z " fill="#000000"/><polygon fill="#F1F1F1" points="212.5,1408.8398,350.5,1408.8398,340.5,1443.2399,202.5,1443.2399" style="stroke:#181818;stroke-width:0.5;"/><text fill="#000000" font-family="sans-serif" font-size="12" lengthAdjust="spacing" textLength="128" x="212.5" y="1429.9879">return bestCombination</text><rect fill="none" height="1281.0205" style="stroke:#000000;stroke-width:1.5;" width="545" x="11" y="1465.2399"/><path d="M220,1465.2399 L220,1475.0398 L210,1485.0398 L11,1485.0398 " fill="none" style="stroke:#000000;stroke-width:1.5;"/><text fill="#000000" font-family="sans-serif" font-size="14" font-weight="bold" lengthAdjust="spacing" textLength="58" x="14" y="1479.2459">function</text><text fill="#000000" font-family="sans-serif" font-size="14" lengthAdjust="spacing" textLength="137" x="76" y="1479.2459">generateCombination</text><polygon fill="#F1F1F1" points="228.5,1495.0398,334.5,1495.0398,324.5,1587.0403,218.5,1587.0403" style="stroke:#181818;stroke-width:0.5;"/><text fill="#000000" font-family="sans-serif" font-size="12" lengthAdjust="spacing" textLength="33" x="228.5" y="1516.1879">matrix</text><text fill="#000000" font-family="sans-serif" font-size="12" lengthAdjust="spacing" textLength="30" x="231.5" y="1530.588">index</text><text fill="#000000" font-family="sans-serif" font-size="12" lengthAdjust="spacing" textLength="67" x="231.5" y="1544.9881">combination</text><text fill="#000000" font-family="sans-serif" font-size="12" lengthAdjust="spacing" textLength="93" x="231.5" y="1559.3882">bestCombination</text><text fill="#000000" font-family="sans-serif" font-size="12" lengthAdjust="spacing" textLength="57" x="231.5" y="1573.7883">professors</text><rect fill="#F1F1F1" height="34.4001" style="stroke:#181818;stroke-width:0.5;" width="209" x="172" y="1607.0403"/><text fill="#000000" font-family="sans-serif" font-size="12" lengthAdjust="spacing" textLength="189" x="182" y="1628.1884">totalOfProfessors = matrix[0].length</text><rect fill="#F1F1F1" height="34.4001" style="stroke:#181818;stroke-width:0.5;" width="145" x="204" y="1710.0404"/><text fill="#000000" font-family="sans-serif" font-size="12" lengthAdjust="spacing" textLength="125" x="214" y="1731.1885">totalOfCombinations++</text><rect fill="#F1F1F1" height="34.4001" style="stroke:#181818;stroke-width:0.5;" width="238" x="157.5" y="1764.4405"/><text fill="#000000" font-family="sans-serif" font-size="12" lengthAdjust="spacing" textLength="218" x="167.5" y="1785.5886">fitness = getFitness(combination, matrix)</text><rect fill="#F1F1F1" height="34.4001" style="stroke:#181818;stroke-width:0.5;" width="427" x="63" y="1867.4405"/><text fill="#000000" font-family="sans-serif" font-size="12" lengthAdjust="spacing" textLength="407" x="73" y="1888.5886">System.arraycopy(combination, 0, bestCombination, 0, combination.length)</text><polygon fill="#F1F1F1" points="148,1818.8406,405,1818.8406,417,1830.8406,405,1842.8406,148,1842.8406,136,1830.8406,148,1818.8406" style="stroke:#181818;stroke-width:0.5;"/><text fill="#000000" font-family="sans-serif" font-size="11" lengthAdjust="spacing" textLength="18" x="280.5" y="1853.0595">yes</text><text fill="#000000" font-family="sans-serif" font-size="11" lengthAdjust="spacing" textLength="257" x="148" y="1834.4596">fitness) greater (getFitness(bestCombination, matrix)</text><polygon fill="#F1F1F1" points="276.5,1921.8406,288.5,1933.8406,276.5,1945.8406,264.5,1933.8406,276.5,1921.8406" style="stroke:#181818;stroke-width:0.5;"/><ellipse cx="276.5" cy="1976.8406" fill="none" rx="11" ry="11" style="stroke:#222222;stroke-width:1.0;"/><ellipse cx="276.5" cy="1976.8406" fill="#222222" rx="6" ry="6" style="stroke:#111111;stroke-width:1.0;"/><polygon fill="#F1F1F1" points="223.5,1661.4404,329.5,1661.4404,341.5,1673.4404,329.5,1685.4404,223.5,1685.4404,211.5,1673.4404,223.5,1661.4404" style="stroke:#181818;stroke-width:0.5;"/><text fill="#000000" font-family="sans-serif" font-size="11" lengthAdjust="spacing" textLength="18" x="280.5" y="1695.6594">yes</text><text fill="#000000" font-family="sans-serif" font-size="11" lengthAdjust="spacing" textLength="106" x="223.5" y="1677.0594">index == matrix.length</text><rect fill="#F1F1F1" height="34.4001" style="stroke:#181818;stroke-width:0.5;" width="43" x="255" y="2029.8406"/><text fill="#000000" font-family="sans-serif" font-size="12" lengthAdjust="spacing" textLength="23" x="265" y="2050.9887">i = 0</text><rect fill="#F1F1F1" height="34.4001" style="stroke:#181818;stroke-width:0.5;" width="139" x="207" y="2188.5596"/><text fill="#000000" font-family="sans-serif" font-size="12" lengthAdjust="spacing" textLength="119" x="217" y="2209.7077">combination[index] = i</text><rect fill="#F1F1F1" height="34.4001" style="stroke:#181818;stroke-width:0.5;" width="100" x="226.5" y="2242.9597"/><text fill="#000000" font-family="sans-serif" font-size="12" lengthAdjust="spacing" textLength="80" x="236.5" y="2264.1078">professors[i]++</text><rect fill="#F1F1F1" height="34.4001" style="stroke:#181818;stroke-width:0.5;" width="471" x="41" y="2297.3598"/><text fill="#000000" font-family="sans-serif" font-size="12" lengthAdjust="spacing" textLength="451" x="51" y="2318.5079">generateCombination(matrix, index + 1, combination, bestCombination, professors)</text><ellipse cx="276.5" cy="2361.7599" fill="#F1F1F1" rx="10" ry="10" style="stroke:#181818;stroke-width:0.5;"/><path d="M274.2344,2362.4943 L277.1094,2362.4943 C278.1094,2362.4943 278.5469,2362.9787 278.5469,2364.0568 L278.5469,2364.8381 C278.5469,2365.3693 278.6406,2365.9006 278.7969,2366.2599 L280.1406,2366.2599 L280.1406,2365.9787 C279.7344,2365.6974 279.6406,2365.3849 279.625,2364.2131 C279.6094,2362.7756 279.375,2362.3537 278.4375,2361.9474 C279.4219,2361.4474 279.8125,2360.8537 279.8125,2359.8537 C279.8125,2358.3381 278.875,2357.5099 277.1406,2357.5099 L273.1094,2357.5099 L273.1094,2366.2599 L274.2344,2366.2599 L274.2344,2362.4943 Z M274.2344,2361.5099 L274.2344,2358.4943 L276.9375,2358.4943 C277.5625,2358.4943 277.9219,2358.5881 278.1875,2358.8381 C278.4844,2359.0881 278.6406,2359.4787 278.6406,2359.9943 C278.6406,2361.0412 278.125,2361.5099 276.9375,2361.5099 L274.2344,2361.5099 Z " fill="#000000"/><ellipse cx="276.5" cy="2400.66" fill="#F1F1F1" rx="10" ry="10" style="stroke:#181818;stroke-width:0.5;"/><path d="M274.2344,2401.3944 L277.1094,2401.3944 C278.1094,2401.3944 278.5469,2401.8787 278.5469,2402.9569 L278.5469,2403.7381 C278.5469,2404.2694 278.6406,2404.8006 278.7969,2405.16 L280.1406,2405.16 L280.1406,2404.8787 C279.7344,2404.5975 279.6406,2404.285 279.625,2403.1131 C279.6094,2401.6756 279.375,2401.2537 278.4375,2400.8475 C279.4219,2400.3475 279.8125,2399.7537 279.8125,2398.7537 C279.8125,2397.2381 278.875,2396.41 277.1406,2396.41 L273.1094,2396.41 L273.1094,2405.16 L274.2344,2405.16 L274.2344,2401.3944 Z M274.2344,2400.41 L274.2344,2397.3944 L276.9375,2397.3944 C277.5625,2397.3944 277.9219,2397.4881 278.1875,2397.7381 C278.4844,2397.9881 278.6406,2398.3787 278.6406,2398.8944 C278.6406,2399.9412 278.125,2400.41 276.9375,2400.41 L274.2344,2400.41 Z " fill="#000000"/><rect fill="#F1F1F1" height="34.4001" style="stroke:#181818;stroke-width:0.5;" width="94" x="229.5" y="2430.66"/><text fill="#000000" font-family="sans-serif" font-size="12" lengthAdjust="spacing" textLength="74" x="239.5" y="2451.8081">professors[i]--</text><rect fill="#F1F1F1" height="34.4001" style="stroke:#181818;stroke-width:0.5;" width="147" x="203" y="2485.0601"/><text fill="#000000" font-family="sans-serif" font-size="12" lengthAdjust="spacing" textLength="127" x="213" y="2506.2082">combination[index] = -1</text><polygon fill="#F1F1F1" points="177.5,2139.9597,375.5,2139.9597,387.5,2151.9597,375.5,2163.9597,177.5,2163.9597,165.5,2151.9597,177.5,2139.9597" style="stroke:#181818;stroke-width:0.5;"/><text fill="#000000" font-family="sans-serif" font-size="11" lengthAdjust="spacing" textLength="18" x="280.5" y="2174.1786">yes</text><text fill="#000000" font-family="sans-serif" font-size="11" lengthAdjust="spacing" textLength="198" x="177.5" y="2155.5786">professors[i] &lt; 4 and matrix[index][i] != -1</text><polygon fill="#F1F1F1" points="276.5,2539.4602,288.5,2551.4602,276.5,2563.4602,264.5,2551.4602,276.5,2539.4602" style="stroke:#181818;stroke-width:0.5;"/><rect fill="#F1F1F1" height="34.4001" style="stroke:#181818;stroke-width:0.5;" width="37" x="258" y="2583.4602"/><text fill="#000000" font-family="sans-serif" font-size="12" lengthAdjust="spacing" textLength="17" x="268" y="2604.6083">i++</text><polygon fill="#F1F1F1" points="226.5,2084.2407,326.5,2084.2407,338.5,2096.2407,326.5,2108.2407,226.5,2108.2407,214.5,2096.2407,226.5,2084.2407" style="stroke:#181818;stroke-width:0.5;"/><text fill="#000000" font-family="sans-serif" font-size="11" lengthAdjust="spacing" textLength="18" x="280.5" y="2118.4597">yes</text><text fill="#000000" font-family="sans-serif" font-size="11" lengthAdjust="spacing" textLength="100" x="226.5" y="2099.8597">i &lt; totalOfProfessors</text><polygon fill="#F1F1F1" points="260.5,2659.8603,302.5,2659.8603,292.5,2694.2604,250.5,2694.2604" style="stroke:#181818;stroke-width:0.5;"/><text fill="#000000" font-family="sans-serif" font-size="12" lengthAdjust="spacing" textLength="32" x="260.5" y="2681.0084">return</text><ellipse cx="276.5" cy="2724.2604" fill="none" rx="10" ry="10" style="stroke:#222222;stroke-width:1.5;"/><line style="stroke:#222222;stroke-width:2.5;" x1="270.3128" x2="282.6872" y1="2718.0732" y2="2730.4476"/><line style="stroke:#222222;stroke-width:2.5;" x1="282.6872" x2="270.3128" y1="2718.0732" y2="2730.4476"/><rect fill="none" height="400.3196" style="stroke:#000000;stroke-width:1.5;" width="267" x="141.5" y="2756.2604"/><path d="M279.5,2756.2604 L279.5,2766.0603 L269.5,2776.0603 L141.5,2776.0603 " fill="none" style="stroke:#000000;stroke-width:1.5;"/><text fill="#000000" font-family="sans-serif" font-size="14" font-weight="bold" lengthAdjust="spacing" textLength="58" x="144.5" y="2770.2663">function</text><text fill="#000000" font-family="sans-serif" font-size="14" lengthAdjust="spacing" textLength="66" x="206.5" y="2770.2663">getFitness</text><polygon fill="#F1F1F1" points="243,2786.0603,320,2786.0603,310,2834.8605,233,2834.8605" style="stroke:#181818;stroke-width:0.5;"/><text fill="#000000" font-family="sans-serif" font-size="12" lengthAdjust="spacing" textLength="67" x="243" y="2807.2084">combination</text><text fill="#000000" font-family="sans-serif" font-size="12" lengthAdjust="spacing" textLength="33" x="246" y="2821.6085">matrix</text><rect fill="#F1F1F1" height="34.4001" style="stroke:#181818;stroke-width:0.5;" width="75" x="239" y="2854.8605"/><text fill="#000000" font-family="sans-serif" font-size="12" lengthAdjust="spacing" textLength="55" x="249" y="2876.0086">fitness = 0</text><rect fill="#F1F1F1" height="34.4001" style="stroke:#181818;stroke-width:0.5;" width="43" x="255" y="2909.2606"/><text fill="#000000" font-family="sans-serif" font-size="12" lengthAdjust="spacing" textLength="23" x="265" y="2930.4087">i = 0</text><rect fill="#F1F1F1" height="48.8002" style="stroke:#181818;stroke-width:0.5;" width="202" x="175.5" y="3019.3796"/><text fill="#000000" font-family="sans-serif" font-size="12" lengthAdjust="spacing" textLength="182" x="185.5" y="3040.5277">fitness += matrix[i][combination[i]]]</text><text fill="#000000" font-family="sans-serif" font-size="12" lengthAdjust="spacing" textLength="20" x="185.5" y="3054.9278">:i++</text><polygon fill="#F1F1F1" points="224.5,2963.6607,328.5,2963.6607,340.5,2975.6607,328.5,2987.6607,224.5,2987.6607,212.5,2975.6607,224.5,2963.6607" style="stroke:#181818;stroke-width:0.5;"/><text fill="#000000" font-family="sans-serif" font-size="11" lengthAdjust="spacing" textLength="18" x="280.5" y="2997.8796">yes</text><text fill="#000000" font-family="sans-serif" font-size="11" lengthAdjust="spacing" textLength="104" x="224.5" y="2979.2797">i &lt; combination.length</text><polygon fill="#F1F1F1" points="260.5,3110.1798,302.5,3110.1798,292.5,3144.5799,250.5,3144.5799" style="stroke:#181818;stroke-width:0.5;"/><text fill="#000000" font-family="sans-serif" font-size="12" lengthAdjust="spacing" textLength="32" x="260.5" y="3131.3279">return</text><line style="stroke:#181818;stroke-width:1.0;" x1="276.5" x2="276.5" y1="104.0002" y2="124.0002"/><polygon fill="#181818" points="272.5,114.0002,276.5,124.0002,280.5,114.0002,276.5,118.0002" style="stroke:#181818;stroke-width:1.0;"/><line style="stroke:#181818;stroke-width:1.0;" x1="276.5" x2="276.5" y1="282.9195" y2="302.9195"/><polygon fill="#181818" points="272.5,292.9195,276.5,302.9195,280.5,292.9195,276.5,296.9195" style="stroke:#181818;stroke-width:1.0;"/><line style="stroke:#181818;stroke-width:1.0;" x1="276.5" x2="276.5" y1="337.3196" y2="366.2196"/><polygon fill="#181818" points="272.5,356.2196,276.5,366.2196,280.5,356.2196,276.5,360.2196" style="stroke:#181818;stroke-width:1.0;"/><line style="stroke:#181818;stroke-width:1.0;" x1="276.5" x2="276.5" y1="400.6197" y2="420.6197"/><polygon fill="#181818" points="272.5,410.6197,276.5,420.6197,280.5,410.6197,276.5,414.6197" style="stroke:#181818;stroke-width:1.0;"/><line style="stroke:#181818;stroke-width:1.0;" x1="276.5" x2="276.5" y1="216.8004" y2="248.5194"/><polygon fill="#181818" points="272.5,238.5194,276.5,248.5194,280.5,238.5194,276.5,242.5194" style="stroke:#181818;stroke-width:1.0;"/><line style="stroke:#181818;stroke-width:1.0;" x1="276.5" x2="276.5" y1="455.0198" y2="465.0198"/><line style="stroke:#181818;stroke-width:1.0;" x1="276.5" x2="455" y1="465.0198" y2="465.0198"/><polygon fill="#181818" points="451,346.2196,455,336.2196,459,346.2196,455,342.2196" style="stroke:#181818;stroke-width:1.0;"/><line style="stroke:#181818;stroke-width:1.0;" x1="455" x2="455" y1="204.8004" y2="465.0198"/><line style="stroke:#181818;stroke-width:1.0;" x1="455" x2="326" y1="204.8004" y2="204.8004"/><polygon fill="#181818" points="336,200.8004,326,204.8004,336,208.8004,332,204.8004" style="stroke:#181818;stroke-width:1.0;"/><line style="stroke:#181818;stroke-width:1.0;" x1="227" x2="98" y1="204.8004" y2="204.8004"/><polygon fill="#181818" points="94,332.2196,98,342.2196,102,332.2196,98,336.2196" style="stroke:#181818;stroke-width:1.0;"/><line style="stroke:#181818;stroke-width:1.0;" x1="98" x2="98" y1="204.8004" y2="477.0198"/><line style="stroke:#181818;stroke-width:1.0;" x1="98" x2="276.5" y1="477.0198" y2="477.0198"/><line style="stroke:#181818;stroke-width:1.0;" x1="276.5" x2="276.5" y1="477.0198" y2="497.0198"/><polygon fill="#181818" points="272.5,487.0198,276.5,497.0198,280.5,487.0198,276.5,491.0198" style="stroke:#181818;stroke-width:1.0;"/><line style="stroke:#181818;stroke-width:1.0;" x1="276.5" x2="276.5" y1="172.8004" y2="192.8004"/><polygon fill="#181818" points="272.5,182.8004,276.5,192.8004,280.5,182.8004,276.5,186.8004" style="stroke:#181818;stroke-width:1.0;"/><line style="stroke:#181818;stroke-width:1.0;" x1="276.5" x2="276.5" y1="531.4199" y2="551.4199"/><polygon fill="#181818" points="272.5,541.4199,276.5,551.4199,280.5,541.4199,276.5,545.4199" style="stroke:#181818;stroke-width:1.0;"/><line style="stroke:#181818;stroke-width:1.0;" x1="276.5" x2="276.5" y1="601.4199" y2="621.4199"/><polygon fill="#181818" points="272.5,611.4199,276.5,621.4199,280.5,611.4199,276.5,615.4199" style="stroke:#181818;stroke-width:1.0;"/><line style="stroke:#181818;stroke-width:1.0;" x1="276.5" x2="276.5" y1="765.939" y2="794.8391"/><polygon fill="#181818" points="272.5,784.8391,276.5,794.8391,280.5,784.8391,276.5,788.8391" style="stroke:#181818;stroke-width:1.0;"/><line style="stroke:#181818;stroke-width:1.0;" x1="276.5" x2="276.5" y1="699.82" y2="731.5389"/><polygon fill="#181818" points="272.5,721.5389,276.5,731.5389,280.5,721.5389,276.5,725.5389" style="stroke:#181818;stroke-width:1.0;"/><line style="stroke:#181818;stroke-width:1.0;" x1="276.5" x2="276.5" y1="829.2392" y2="839.2392"/><line style="stroke:#181818;stroke-width:1.0;" x1="276.5" x2="389.5" y1="839.2392" y2="839.2392"/><polygon fill="#181818" points="385.5,774.8391,389.5,764.8391,393.5,774.8391,389.5,770.8391" style="stroke:#181818;stroke-width:1.0;"/><line style="stroke:#181818;stroke-width:1.0;" x1="389.5" x2="389.5" y1="687.82" y2="839.2392"/><line style="stroke:#181818;stroke-width:1.0;" x1="389.5" x2="352" y1="687.82" y2="687.82"/><polygon fill="#181818" points="362,683.82,352,687.82,362,691.82,358,687.82" style="stroke:#181818;stroke-width:1.0;"/><line style="stroke:#181818;stroke-width:1.0;" x1="201" x2="163.5" y1="687.82" y2="687.82"/><polygon fill="#181818" points="159.5,760.8391,163.5,770.8391,167.5,760.8391,163.5,764.8391" style="stroke:#181818;stroke-width:1.0;"/><line style="stroke:#181818;stroke-width:1.0;" x1="163.5" x2="163.5" y1="687.82" y2="851.2392"/><line style="stroke:#181818;stroke-width:1.0;" x1="163.5" x2="276.5" y1="851.2392" y2="851.2392"/><line style="stroke:#181818;stroke-width:1.0;" x1="276.5" x2="276.5" y1="851.2392" y2="871.2392"/><polygon fill="#181818" points="272.5,861.2392,276.5,871.2392,280.5,861.2392,276.5,865.2392" style="stroke:#181818;stroke-width:1.0;"/><line style="stroke:#181818;stroke-width:1.0;" x1="276.5" x2="276.5" y1="655.82" y2="675.82"/><polygon fill="#181818" points="272.5,665.82,276.5,675.82,280.5,665.82,276.5,669.82" style="stroke:#181818;stroke-width:1.0;"/><line style="stroke:#181818;stroke-width:1.0;" x1="276.5" x2="276.5" y1="949.6393" y2="969.6393"/><polygon fill="#181818" points="272.5,959.6393,276.5,969.6393,280.5,959.6393,276.5,963.6393" style="stroke:#181818;stroke-width:1.0;"/><line style="stroke:#181818;stroke-width:1.0;" x1="339.5" x2="368" y1="937.6393" y2="937.6393"/><polygon fill="#181818" points="364,976.8393,368,986.8393,372,976.8393,368,980.8393" style="stroke:#181818;stroke-width:1.0;"/><line style="stroke:#181818;stroke-width:1.0;" x1="368" x2="368" y1="937.6393" y2="1036.0394"/><line style="stroke:#181818;stroke-width:1.0;" x1="368" x2="288.5" y1="1036.0394" y2="1036.0394"/><polygon fill="#181818" points="298.5,1032.0394,288.5,1036.0394,298.5,1040.0394,294.5,1036.0394" style="stroke:#181818;stroke-width:1.0;"/><line style="stroke:#181818;stroke-width:1.0;" x1="276.5" x2="276.5" y1="1004.0394" y2="1024.0394"/><polygon fill="#181818" points="272.5,1014.0394,276.5,1024.0394,280.5,1014.0394,276.5,1018.0394" style="stroke:#181818;stroke-width:1.0;"/><line style="stroke:#181818;stroke-width:1.0;" x1="276.5" x2="276.5" y1="905.6393" y2="925.6393"/><polygon fill="#181818" points="272.5,915.6393,276.5,925.6393,280.5,915.6393,276.5,919.6393" style="stroke:#181818;stroke-width:1.0;"/><line style="stroke:#181818;stroke-width:1.0;" x1="276.5" x2="276.5" y1="1126.8393" y2="1146.8393"/><polygon fill="#181818" points="272.5,1136.8393,276.5,1146.8393,280.5,1136.8393,276.5,1140.8393" style="stroke:#181818;stroke-width:1.0;"/><line style="stroke:#181818;stroke-width:1.0;" x1="276.5" x2="276.5" y1="1181.2394" y2="1201.2394"/><polygon fill="#181818" points="272.5,1191.2394,276.5,1201.2394,280.5,1191.2394,276.5,1195.2394" style="stroke:#181818;stroke-width:1.0;"/><line style="stroke:#181818;stroke-width:1.0;" x1="276.5" x2="276.5" y1="1264.4397" y2="1284.4397"/><polygon fill="#181818" points="272.5,1274.4397,276.5,1284.4397,280.5,1274.4397,276.5,1278.4397" style="stroke:#181818;stroke-width:1.0;"/><line style="stroke:#181818;stroke-width:1.0;" x1="276.5" x2="276.5" y1="1318.8398" y2="1338.8398"/><polygon fill="#181818" points="272.5,1328.8398,276.5,1338.8398,280.5,1328.8398,276.5,1332.8398" style="stroke:#181818;stroke-width:1.0;"/><line style="stroke:#181818;stroke-width:1.0;" x1="276.5" x2="276.5" y1="1388.8398" y2="1408.8398"/><polygon fill="#181818" points="272.5,1398.8398,276.5,1408.8398,280.5,1398.8398,276.5,1402.8398" style="stroke:#181818;stroke-width:1.0;"/><line style="stroke:#181818;stroke-width:1.0;" x1="276.5" x2="276.5" y1="1048.0394" y2="1106.8393"/><polygon fill="#181818" points="272.5,1096.8393,276.5,1106.8393,280.5,1096.8393,276.5,1100.8393" style="stroke:#181818;stroke-width:1.0;"/><line style="stroke:#181818;stroke-width:1.0;" x1="276.5" x2="276.5" y1="1587.0403" y2="1607.0403"/><polygon fill="#181818" points="272.5,1597.0403,276.5,1607.0403,280.5,1597.0403,276.5,1601.0403" style="stroke:#181818;stroke-width:1.0;"/><line style="stroke:#181818;stroke-width:1.0;" x1="276.5" x2="276.5" y1="1744.4405" y2="1764.4405"/><polygon fill="#181818" points="272.5,1754.4405,276.5,1764.4405,280.5,1754.4405,276.5,1758.4405" style="stroke:#181818;stroke-width:1.0;"/><line style="stroke:#181818;stroke-width:1.0;" x1="276.5" x2="276.5" y1="1842.8406" y2="1867.4405"/><polygon fill="#181818" points="272.5,1857.4405,276.5,1867.4405,280.5,1857.4405,276.5,1861.4405" style="stroke:#181818;stroke-width:1.0;"/><line style="stroke:#181818;stroke-width:1.0;" x1="417" x2="500" y1="1830.8406" y2="1830.8406"/><polygon fill="#181818" points="496,1874.6406,500,1884.6406,504,1874.6406,500,1878.6406" style="stroke:#181818;stroke-width:1.0;"/><line style="stroke:#181818;stroke-width:1.0;" x1="500" x2="500" y1="1830.8406" y2="1933.8406"/><line style="stroke:#181818;stroke-width:1.0;" x1="500" x2="288.5" y1="1933.8406" y2="1933.8406"/><polygon fill="#181818" points="298.5,1929.8406,288.5,1933.8406,298.5,1937.8406,294.5,1933.8406" style="stroke:#181818;stroke-width:1.0;"/><line style="stroke:#181818;stroke-width:1.0;" x1="276.5" x2="276.5" y1="1901.8406" y2="1921.8406"/><polygon fill="#181818" points="272.5,1911.8406,276.5,1921.8406,280.5,1911.8406,276.5,1915.8406" style="stroke:#181818;stroke-width:1.0;"/><line style="stroke:#181818;stroke-width:1.0;" x1="276.5" x2="276.5" y1="1798.8406" y2="1818.8406"/><polygon fill="#181818" points="272.5,1808.8406,276.5,1818.8406,280.5,1808.8406,276.5,1812.8406" style="stroke:#181818;stroke-width:1.0;"/><line style="stroke:#181818;stroke-width:1.0;" x1="276.5" x2="276.5" y1="1945.8406" y2="1965.8406"/><polygon fill="#181818" points="272.5,1955.8406,276.5,1965.8406,280.5,1955.8406,276.5,1959.8406" style="stroke:#181818;stroke-width:1.0;"/><line style="stroke:#181818;stroke-width:1.0;" x1="276.5" x2="276.5" y1="1685.4404" y2="1710.0404"/><polygon fill="#181818" points="272.5,1700.0404,276.5,1710.0404,280.5,1700.0404,276.5,1704.0404" style="stroke:#181818;stroke-width:1.0;"/><line style="stroke:#181818;stroke-width:1.0;" x1="341.5" x2="522" y1="1673.4404" y2="1673.4404"/><polygon fill="#181818" points="518,1830.7405,522,1840.7405,526,1830.7405,522,1834.7405" style="stroke:#181818;stroke-width:1.0;"/><line style="stroke:#181818;stroke-width:1.0;" x1="522" x2="522" y1="1673.4404" y2="2009.8406"/><line style="stroke:#181818;stroke-width:1.0;" x1="522" x2="276.5" y1="2009.8406" y2="2009.8406"/><line style="stroke:#181818;stroke-width:1.0;" x1="276.5" x2="276.5" y1="2009.8406" y2="2029.8406"/><polygon fill="#181818" points="272.5,2019.8406,276.5,2029.8406,280.5,2019.8406,276.5,2023.8406" style="stroke:#181818;stroke-width:1.0;"/><line style="stroke:#181818;stroke-width:1.0;" x1="276.5" x2="276.5" y1="1641.4404" y2="1661.4404"/><polygon fill="#181818" points="272.5,1651.4404,276.5,1661.4404,280.5,1651.4404,276.5,1655.4404" style="stroke:#181818;stroke-width:1.0;"/><line style="stroke:#181818;stroke-width:1.0;" x1="276.5" x2="276.5" y1="2222.9597" y2="2242.9597"/><polygon fill="#181818" points="272.5,2232.9597,276.5,2242.9597,280.5,2232.9597,276.5,2236.9597" style="stroke:#181818;stroke-width:1.0;"/><line style="stroke:#181818;stroke-width:1.0;" x1="276.5" x2="276.5" y1="2277.3598" y2="2297.3598"/><polygon fill="#181818" points="272.5,2287.3598,276.5,2297.3598,280.5,2287.3598,276.5,2291.3598" style="stroke:#181818;stroke-width:1.0;"/><line style="stroke:#181818;stroke-width:1.0;" x1="276.5" x2="276.5" y1="2331.7599" y2="2351.7599"/><polygon fill="#181818" points="272.5,2341.7599,276.5,2351.7599,280.5,2341.7599,276.5,2345.7599" style="stroke:#181818;stroke-width:1.0;"/><line style="stroke:#181818;stroke-width:1.0;" x1="276.5" x2="276.5" y1="2410.66" y2="2430.66"/><polygon fill="#181818" points="272.5,2420.66,276.5,2430.66,280.5,2420.66,276.5,2424.66" style="stroke:#181818;stroke-width:1.0;"/><line style="stroke:#181818;stroke-width:1.0;" x1="276.5" x2="276.5" y1="2465.0601" y2="2485.0601"/><polygon fill="#181818" points="272.5,2475.0601,276.5,2485.0601,280.5,2475.0601,276.5,2479.0601" style="stroke:#181818;stroke-width:1.0;"/><line style="stroke:#181818;stroke-width:1.0;" x1="276.5" x2="276.5" y1="2163.9597" y2="2188.5596"/><polygon fill="#181818" points="272.5,2178.5596,276.5,2188.5596,280.5,2178.5596,276.5,2182.5596" style="stroke:#181818;stroke-width:1.0;"/><line style="stroke:#181818;stroke-width:1.0;" x1="387.5" x2="522" y1="2151.9597" y2="2151.9597"/><polygon fill="#181818" points="518,2344.5599,522,2354.5599,526,2344.5599,522,2348.5599" style="stroke:#181818;stroke-width:1.0;"/><line style="stroke:#181818;stroke-width:1.0;" x1="522" x2="522" y1="2151.9597" y2="2551.4602"/><line style="stroke:#181818;stroke-width:1.0;" x1="522" x2="288.5" y1="2551.4602" y2="2551.4602"/><polygon fill="#181818" points="298.5,2547.4602,288.5,2551.4602,298.5,2555.4602,294.5,2551.4602" style="stroke:#181818;stroke-width:1.0;"/><line style="stroke:#181818;stroke-width:1.0;" x1="276.5" x2="276.5" y1="2519.4602" y2="2539.4602"/><polygon fill="#181818" points="272.5,2529.4602,276.5,2539.4602,280.5,2529.4602,276.5,2533.4602" style="stroke:#181818;stroke-width:1.0;"/><line style="stroke:#181818;stroke-width:1.0;" x1="276.5" x2="276.5" y1="2563.4602" y2="2583.4602"/><polygon fill="#181818" points="272.5,2573.4602,276.5,2583.4602,280.5,2573.4602,276.5,2577.4602" style="stroke:#181818;stroke-width:1.0;"/><line style="stroke:#181818;stroke-width:1.0;" x1="276.5" x2="276.5" y1="2108.2407" y2="2139.9597"/><polygon fill="#181818" points="272.5,2129.9597,276.5,2139.9597,280.5,2129.9597,276.5,2133.9597" style="stroke:#181818;stroke-width:1.0;"/><line style="stroke:#181818;stroke-width:1.0;" x1="276.5" x2="276.5" y1="2617.8603" y2="2627.8603"/><line style="stroke:#181818;stroke-width:1.0;" x1="276.5" x2="540" y1="2627.8603" y2="2627.8603"/><polygon fill="#181818" points="536,2380.66,540,2370.66,544,2380.66,540,2376.66" style="stroke:#181818;stroke-width:1.0;"/><line style="stroke:#181818;stroke-width:1.0;" x1="540" x2="540" y1="2096.2407" y2="2627.8603"/><line style="stroke:#181818;stroke-width:1.0;" x1="540" x2="338.5" y1="2096.2407" y2="2096.2407"/><polygon fill="#181818" points="348.5,2092.2407,338.5,2096.2407,348.5,2100.2407,344.5,2096.2407" style="stroke:#181818;stroke-width:1.0;"/><line style="stroke:#181818;stroke-width:1.0;" x1="214.5" x2="27" y1="2096.2407" y2="2096.2407"/><polygon fill="#181818" points="23,2366.66,27,2376.66,31,2366.66,27,2370.66" style="stroke:#181818;stroke-width:1.0;"/><line style="stroke:#181818;stroke-width:1.0;" x1="27" x2="27" y1="2096.2407" y2="2639.8603"/><line style="stroke:#181818;stroke-width:1.0;" x1="27" x2="276.5" y1="2639.8603" y2="2639.8603"/><line style="stroke:#181818;stroke-width:1.0;" x1="276.5" x2="276.5" y1="2639.8603" y2="2659.8603"/><polygon fill="#181818" points="272.5,2649.8603,276.5,2659.8603,280.5,2649.8603,276.5,2653.8603" style="stroke:#181818;stroke-width:1.0;"/><line style="stroke:#181818;stroke-width:1.0;" x1="276.5" x2="276.5" y1="2064.2407" y2="2084.2407"/><polygon fill="#181818" points="272.5,2074.2407,276.5,2084.2407,280.5,2074.2407,276.5,2078.2407" style="stroke:#181818;stroke-width:1.0;"/><line style="stroke:#181818;stroke-width:1.0;" x1="276.5" x2="276.5" y1="2694.2604" y2="2714.2604"/><polygon fill="#181818" points="272.5,2704.2604,276.5,2714.2604,280.5,2704.2604,276.5,2708.2604" style="stroke:#181818;stroke-width:1.0;"/><line style="stroke:#181818;stroke-width:1.0;" x1="276.5" x2="276.5" y1="2834.8605" y2="2854.8605"/><polygon fill="#181818" points="272.5,2844.8605,276.5,2854.8605,280.5,2844.8605,276.5,2848.8605" style="stroke:#181818;stroke-width:1.0;"/><line style="stroke:#181818;stroke-width:1.0;" x1="276.5" x2="276.5" y1="2889.2606" y2="2909.2606"/><polygon fill="#181818" points="272.5,2899.2606,276.5,2909.2606,280.5,2899.2606,276.5,2903.2606" style="stroke:#181818;stroke-width:1.0;"/><line style="stroke:#181818;stroke-width:1.0;" x1="276.5" x2="276.5" y1="2987.6607" y2="3019.3796"/><polygon fill="#181818" points="272.5,3009.3796,276.5,3019.3796,280.5,3009.3796,276.5,3013.3796" style="stroke:#181818;stroke-width:1.0;"/><line style="stroke:#181818;stroke-width:1.0;" x1="276.5" x2="276.5" y1="3068.1798" y2="3078.1798"/><line style="stroke:#181818;stroke-width:1.0;" x1="276.5" x2="389.5" y1="3078.1798" y2="3078.1798"/><polygon fill="#181818" points="385.5,3035.1798,389.5,3025.1798,393.5,3035.1798,389.5,3031.1798" style="stroke:#181818;stroke-width:1.0;"/><line style="stroke:#181818;stroke-width:1.0;" x1="389.5" x2="389.5" y1="2975.6607" y2="3078.1798"/><line style="stroke:#181818;stroke-width:1.0;" x1="389.5" x2="340.5" y1="2975.6607" y2="2975.6607"/><polygon fill="#181818" points="350.5,2971.6607,340.5,2975.6607,350.5,2979.6607,346.5,2975.6607" style="stroke:#181818;stroke-width:1.0;"/><line style="stroke:#181818;stroke-width:1.0;" x1="212.5" x2="163.5" y1="2975.6607" y2="2975.6607"/><polygon fill="#181818" points="159.5,3021.1798,163.5,3031.1798,167.5,3021.1798,163.5,3025.1798" style="stroke:#181818;stroke-width:1.0;"/><line style="stroke:#181818;stroke-width:1.0;" x1="163.5" x2="163.5" y1="2975.6607" y2="3090.1798"/><line style="stroke:#181818;stroke-width:1.0;" x1="163.5" x2="276.5" y1="3090.1798" y2="3090.1798"/><line style="stroke:#181818;stroke-width:1.0;" x1="276.5" x2="276.5" y1="3090.1798" y2="3110.1798"/><polygon fill="#181818" points="272.5,3100.1798,276.5,3110.1798,280.5,3100.1798,276.5,3104.1798" style="stroke:#181818;stroke-width:1.0;"/><line style="stroke:#181818;stroke-width:1.0;" x1="276.5" x2="276.5" y1="2943.6607" y2="2963.6607"/><polygon fill="#181818" points="272.5,2953.6607,276.5,2963.6607,280.5,2953.6607,276.5,2957.6607" style="stroke:#181818;stroke-width:1.0;"/><!--SRC=[bLRBhjCm4DtdAuPTqdSbLhrqmKK2iGB1CdZXfavhaJgHxG85yUyuyIDsdFIMBAhOcHdFd3bdt0PpIIMj6SncvPKLxUji1lpAdd7nNNBrGza9_YIWdXskAb8HqIr0rX9NdyftzPMBmTvdNfT4Y9gBTQ8_x2vOSleBza2Pp4DNb4Tk21atgZmso0JvUQOLWPJ26p2Ph0JzJT8i0oeWlH6HQSFEjR7HFh8ZQKysFZb5gnEHxh0qQvUTKPeXBq3HfJVkhLEVTDNLvbu4b8Vve2Za1uwF90n3vtEp9EpOLM_XF12XShWSACDTz_QW8Zo7cwdEmaPClnXqZaJYujnl1b0_HL0FZbfLX9taUG9orLrphAeg7xYgBVHWVJgIgkazbKoXbWv2BS0Kbrboq1BIjqsp-a7ueHRaJdwEVIwQoFeqQ9dyJP9cN1Sno4OQGYg7nEkz8duoqQbM0Th8O8c-iU952qSV4HZa6sHjz7admWZ7aiH4MC1c0OMFOGHgVuX1n9B6uuoZp8uJUULi66NjEoWefx6C4ZLWMWnDvsYh5_FkfMzs1gURtSQRGEtQn8q6ZS8onh4d5DNYjqQE-_9CMCIk4Lwr_FOiIarchLRBx6A4rPv8sZICNmOdJXHY71vIncYMNHvVRqAIomfpZcz5tTp273OZn0YPOt7mqjJASKiXwyQNL3ZEXoCcQikOUbiW-hQgMQ8SNmDcHzj1gkUi-l1g3yljdVeBVoRPQKpHm2euBEpaYqhJn9d3zhyLvnuth-tZp-r9ep3hvH8zKlfoEzd9EpDQot_jFjwVcuQkzgz496GtDWTAiRU_pnsFEiKZDvCBDtToLxTJ4TvCQAHcLt9Ki9jl_m00]--></g></svg>