<?xml version="1.0" encoding="us-ascii" standalone="no"?><svg xmlns="http://www.w3.org/2000/svg" xmlns:xlink="http://www.w3.org/1999/xlink" contentStyleType="text/css" height="2081px" preserveAspectRatio="none" style="width:635px;height:2081px;background:#FFFFFF;" version="1.1" viewBox="0 0 635 2081" width="635px" zoomAndPan="magnify"><defs/><g><ellipse cx="310.5" cy="20" fill="#222222" rx="10" ry="10" style="stroke:#222222;stroke-width:1.0;"/><rect fill="none" height="246.4003" style="stroke:#000000;stroke-width:1.5;" width="514" x="53.5" y="40"/><path d="M232.5,40 L232.5,49.7999 L222.5,59.7999 L53.5,59.7999 " fill="none" style="stroke:#000000;stroke-width:1.5;"/><text fill="#000000" font-family="sans-serif" font-size="14" font-weight="bold" lengthAdjust="spacing" textLength="58" x="56.5" y="54.0059">function</text><text fill="#000000" font-family="sans-serif" font-size="14" lengthAdjust="spacing" textLength="107" x="118.5" y="54.0059">getCombinations</text><rect fill="#F1F1F1" height="48.8002" rx="12.5" ry="12.5" style="stroke:#181818;stroke-width:0.5;" width="131" x="245" y="76.7999"/><text fill="#000000" font-family="sans-serif" font-size="12" lengthAdjust="spacing" textLength="111" x="255" y="97.948">List&lt;Allele&gt; element</text><text fill="#000000" font-family="sans-serif" font-size="12" lengthAdjust="spacing" textLength="107" x="255" y="112.3481">int combinationSize</text><rect fill="#F1F1F1" height="34.4001" rx="12.5" ry="12.5" style="stroke:#181818;stroke-width:0.5;" width="202" x="209.5" y="145.6001"/><text fill="#000000" font-family="sans-serif" font-size="12" lengthAdjust="spacing" textLength="182" x="219.5" y="166.7482">combinations = new ArrayList&lt;&gt;()</text><rect fill="#F1F1F1" height="34.4001" rx="12.5" ry="12.5" style="stroke:#181818;stroke-width:0.5;" width="494" x="63.5" y="200.0002"/><text fill="#000000" font-family="sans-serif" font-size="12" lengthAdjust="spacing" textLength="474" x="73.5" y="221.1483">generateCombinations(elements, combinationSize, new ArrayList&lt;&gt;(), combinations, 0)</text><ellipse cx="310.5" cy="264.4003" fill="#F1F1F1" rx="10" ry="10" style="stroke:#181818;stroke-width:0.5;"/><path d="M313.9375,262.8691 C313.5938,260.9472 312.4844,260.0097 310.5781,260.0097 C309.3906,260.0097 308.4531,260.3847 307.7969,261.1035 C307.0156,261.9628 306.5781,263.2128 306.5781,264.6347 C306.5781,266.0722 307.0156,267.3066 307.8438,268.1503 C308.5156,268.8535 309.3906,269.1816 310.5313,269.1816 C312.6563,269.1816 313.8594,268.0253 314.125,265.7128 L312.9688,265.7128 C312.875,266.3066 312.75,266.7128 312.5781,267.0566 C312.2188,267.791 311.4688,268.1972 310.5313,268.1972 C308.7969,268.1972 307.6875,266.8066 307.6875,264.6191 C307.6875,262.3691 308.7344,260.9941 310.4375,260.9941 C311.1406,260.9941 311.8125,261.1972 312.1719,261.541 C312.4844,261.8378 312.6719,262.1972 312.7969,262.8691 L313.9375,262.8691 Z " fill="#000000"/><rect fill="none" height="1024.3196" style="stroke:#000000;stroke-width:1.5;" width="613" x="11" y="296.4003"/><path d="M227,296.4003 L227,306.2003 L217,316.2003 L11,316.2003 " fill="none" style="stroke:#000000;stroke-width:1.5;"/><text fill="#000000" font-family="sans-serif" font-size="14" font-weight="bold" lengthAdjust="spacing" textLength="58" x="14" y="310.4063">function</text><text fill="#000000" font-family="sans-serif" font-size="14" lengthAdjust="spacing" textLength="144" x="76" y="310.4063">generateCombinations</text><ellipse cx="310.5" cy="336.2003" fill="#F1F1F1" rx="10" ry="10" style="stroke:#181818;stroke-width:0.5;"/><path d="M313.9375,334.669 C313.5938,332.7471 312.4844,331.8096 310.5781,331.8096 C309.3906,331.8096 308.4531,332.1846 307.7969,332.9034 C307.0156,333.7628 306.5781,335.0128 306.5781,336.4346 C306.5781,337.8721 307.0156,339.1065 307.8438,339.9503 C308.5156,340.6534 309.3906,340.9815 310.5313,340.9815 C312.6563,340.9815 313.8594,339.8253 314.125,337.5128 L312.9688,337.5128 C312.875,338.1065 312.75,338.5128 312.5781,338.8565 C312.2188,339.5909 311.4688,339.9971 310.5313,339.9971 C308.7969,339.9971 307.6875,338.6065 307.6875,336.419 C307.6875,334.169 308.7344,332.794 310.4375,332.794 C311.1406,332.794 311.8125,332.9971 312.1719,333.3409 C312.4844,333.6378 312.6719,333.9971 312.7969,334.669 L313.9375,334.669 Z " fill="#000000"/><rect fill="#F1F1F1" height="92.0005" rx="12.5" ry="12.5" style="stroke:#181818;stroke-width:0.5;" width="195" x="213" y="366.2003"/><text fill="#000000" font-family="sans-serif" font-size="12" lengthAdjust="spacing" textLength="117" x="223" y="387.3483">List&lt;Allele&gt; elements</text><text fill="#000000" font-family="sans-serif" font-size="12" lengthAdjust="spacing" textLength="107" x="223" y="401.7484">int combinationSize</text><text fill="#000000" font-family="sans-serif" font-size="12" lengthAdjust="spacing" textLength="175" x="223" y="416.1485">List&lt;Allele&gt; currentCombination</text><text fill="#000000" font-family="sans-serif" font-size="12" lengthAdjust="spacing" textLength="173" x="223" y="430.5486">List&lt;List&lt;Allele&gt;&gt; combinations</text><text fill="#000000" font-family="sans-serif" font-size="12" lengthAdjust="spacing" textLength="39" x="223" y="444.9487">int start</text><rect fill="#F1F1F1" height="34.4001" rx="12.5" ry="12.5" style="stroke:#181818;stroke-width:0.5;" width="329" x="146" y="526.8007"/><text fill="#000000" font-family="sans-serif" font-size="12" lengthAdjust="spacing" textLength="309" x="156" y="547.9488">combinations.add(new ArrayList&lt;&gt;(currentCombination))</text><ellipse cx="310.5" cy="600.5008" fill="none" rx="11" ry="11" style="stroke:#222222;stroke-width:1.0;"/><ellipse cx="310.5" cy="600.5008" fill="#222222" rx="6" ry="6" style="stroke:#111111;stroke-width:1.0;"/><polygon fill="#F1F1F1" points="271,478.2008,350,478.2008,362,490.2008,350,502.2008,271,502.2008,259,490.2008,271,478.2008" style="stroke:#181818;stroke-width:0.5;"/><text fill="#000000" font-family="sans-serif" font-size="11" lengthAdjust="spacing" textLength="6" x="314.5" y="512.4197">0</text><text fill="#000000" font-family="sans-serif" font-size="11" lengthAdjust="spacing" textLength="79" x="271" y="493.8197">combinationSize</text><rect fill="#F1F1F1" height="34.4001" rx="12.5" ry="12.5" style="stroke:#181818;stroke-width:0.5;" width="43" x="289" y="653.5008"/><text fill="#000000" font-family="sans-serif" font-size="12" lengthAdjust="spacing" textLength="23" x="299" y="674.6488">i = 0</text><rect fill="#F1F1F1" height="34.4001" rx="12.5" ry="12.5" style="stroke:#181818;stroke-width:0.5;" width="192" x="214.5" y="763.6198"/><text fill="#000000" font-family="sans-serif" font-size="12" lengthAdjust="spacing" textLength="172" x="224.5" y="784.7679">Allele element = elements.get(i)</text><rect fill="#F1F1F1" height="34.4001" rx="12.5" ry="12.5" style="stroke:#181818;stroke-width:0.5;" width="204" x="208.5" y="869.0196"/><text fill="#000000" font-family="sans-serif" font-size="12" lengthAdjust="spacing" textLength="184" x="218.5" y="890.1677">currentCombination.add(element)</text><rect fill="#F1F1F1" height="34.4001" rx="12.5" ry="12.5" style="stroke:#181818;stroke-width:0.5;" width="539" x="41" y="923.4197"/><text fill="#000000" font-family="sans-serif" font-size="12" lengthAdjust="spacing" textLength="519" x="51" y="944.5678">generateCombinations(elements, combinationSize - 1, currentCombination, combinations, i + 1)</text><ellipse cx="310.5" cy="987.8198" fill="#F1F1F1" rx="10" ry="10" style="stroke:#181818;stroke-width:0.5;"/><path d="M308.2344,988.5542 L311.1094,988.5542 C312.1094,988.5542 312.5469,989.0386 312.5469,990.1167 L312.5469,990.898 C312.5469,991.4292 312.6406,991.9605 312.7969,992.3198 L314.1406,992.3198 L314.1406,992.0386 C313.7344,991.7573 313.6406,991.4448 313.625,990.273 C313.6094,988.8355 313.375,988.4136 312.4375,988.0073 C313.4219,987.5073 313.8125,986.9136 313.8125,985.9136 C313.8125,984.398 312.875,983.5698 311.1406,983.5698 L307.1094,983.5698 L307.1094,992.3198 L308.2344,992.3198 L308.2344,988.5542 Z M308.2344,987.5698 L308.2344,984.5542 L310.9375,984.5542 C311.5625,984.5542 311.9219,984.648 312.1875,984.898 C312.4844,985.148 312.6406,985.5386 312.6406,986.0542 C312.6406,987.1011 312.125,987.5698 310.9375,987.5698 L308.2344,987.5698 Z " fill="#000000"/><rect fill="none" height="83.2" style="stroke:#000000;stroke-width:1.5;" width="226" x="197.5" y="1020.7197"/><path d="M413.5,1020.7197 L413.5,1030.5197 L403.5,1040.5197 L197.5,1040.5197 " fill="none" style="stroke:#000000;stroke-width:1.5;"/><text fill="#000000" font-family="sans-serif" font-size="14" font-weight="bold" lengthAdjust="spacing" textLength="58" x="200.5" y="1034.7257">function</text><text fill="#000000" font-family="sans-serif" font-size="14" lengthAdjust="spacing" textLength="144" x="262.5" y="1034.7257">generateCombinations</text><rect fill="#F1F1F1" height="34.4001" rx="12.5" ry="12.5" style="stroke:#181818;stroke-width:0.5;" width="66" x="277.5" y="1057.5197"/><text fill="#000000" font-family="sans-serif" font-size="12" lengthAdjust="spacing" textLength="46" x="287.5" y="1078.6677">Recurse</text><ellipse cx="310.5" cy="1123.9198" fill="#F1F1F1" rx="10" ry="10" style="stroke:#181818;stroke-width:0.5;"/><path d="M308.2344,1124.6541 L311.1094,1124.6541 C312.1094,1124.6541 312.5469,1125.1385 312.5469,1126.2166 L312.5469,1126.9979 C312.5469,1127.5291 312.6406,1128.0604 312.7969,1128.4198 L314.1406,1128.4198 L314.1406,1128.1385 C313.7344,1127.8573 313.6406,1127.5448 313.625,1126.3729 C313.6094,1124.9354 313.375,1124.5135 312.4375,1124.1073 C313.4219,1123.6073 313.8125,1123.0135 313.8125,1122.0135 C313.8125,1120.4979 312.875,1119.6698 311.1406,1119.6698 L307.1094,1119.6698 L307.1094,1128.4198 L308.2344,1128.4198 L308.2344,1124.6541 Z M308.2344,1123.6698 L308.2344,1120.6541 L310.9375,1120.6541 C311.5625,1120.6541 311.9219,1120.7479 312.1875,1120.9979 C312.4844,1121.2479 312.6406,1121.6385 312.6406,1122.1541 C312.6406,1123.201 312.125,1123.6698 310.9375,1123.6698 L308.2344,1123.6698 Z " fill="#000000"/><rect fill="#F1F1F1" height="34.4001" rx="12.5" ry="12.5" style="stroke:#181818;stroke-width:0.5;" width="338" x="141.5" y="1153.9198"/><text fill="#000000" font-family="sans-serif" font-size="12" lengthAdjust="spacing" textLength="318" x="151.5" y="1175.0678">currentCombination.remove(currentCombination.size() - 1)</text><polygon fill="#F1F1F1" points="181,818.0199,440,818.0199,452,831.2198,440,844.4197,181,844.4197,169,831.2198,181,818.0199" style="stroke:#181818;stroke-width:0.5;"/><text fill="#000000" font-family="sans-serif" font-size="11" lengthAdjust="spacing" textLength="18" x="314.5" y="854.6386">yes</text><text fill="#000000" font-family="sans-serif" font-size="11" lengthAdjust="spacing" textLength="188" x="181" y="828.2388">!currentCombination.contains(element)</text><text fill="#000000" font-family="sans-serif" font-size="11" lengthAdjust="spacing" textLength="259" x="181" y="841.4387">and isValidCombination(currentCombination, element)</text><polygon fill="#F1F1F1" points="310.5,1208.3199,322.5,1220.3199,310.5,1232.3199,298.5,1220.3199,310.5,1208.3199" style="stroke:#181818;stroke-width:0.5;"/><rect fill="#F1F1F1" height="34.4001" rx="12.5" ry="12.5" style="stroke:#181818;stroke-width:0.5;" width="37" x="292" y="1252.3199"/><text fill="#000000" font-family="sans-serif" font-size="12" lengthAdjust="spacing" textLength="17" x="302" y="1273.4679">i++</text><polygon fill="#F1F1F1" points="298.5,707.9009,322.5,707.9009,334.5,719.9009,322.5,731.9009,298.5,731.9009,286.5,719.9009,298.5,707.9009" style="stroke:#181818;stroke-width:0.5;"/><text fill="#000000" font-family="sans-serif" font-size="11" lengthAdjust="spacing" textLength="93" x="314.5" y="742.1198">not elements.size()</text><text fill="#000000" font-family="sans-serif" font-size="11" lengthAdjust="spacing" textLength="2" x="309.5" y="723.5198">i</text><rect fill="none" height="123.2" style="stroke:#000000;stroke-width:1.5;" width="189" x="216" y="1332.0139"/><path d="M395,1332.0139 L395,1341.8139 L385,1351.8139 L216,1351.8139 " fill="none" style="stroke:#000000;stroke-width:1.5;"/><text fill="#000000" font-family="sans-serif" font-size="14" font-weight="bold" lengthAdjust="spacing" textLength="58" x="219" y="1346.0199">function</text><text fill="#000000" font-family="sans-serif" font-size="14" lengthAdjust="spacing" textLength="107" x="281" y="1346.0199">getCombinations</text><rect fill="#F1F1F1" height="34.4001" rx="12.5" ry="12.5" style="stroke:#181818;stroke-width:0.5;" width="128" x="246.5" y="1368.8139"/><text fill="#000000" font-family="sans-serif" font-size="12" lengthAdjust="spacing" textLength="108" x="256.5" y="1389.9619">return combinations</text><ellipse cx="310.5" cy="1433.214" fill="none" rx="10" ry="10" style="stroke:#222222;stroke-width:1.5;"/><line style="stroke:#222222;stroke-width:2.5;" x1="304.3128" x2="316.6872" y1="1427.0268" y2="1439.4012"/><line style="stroke:#222222;stroke-width:2.5;" x1="316.6872" x2="304.3128" y1="1427.0268" y2="1439.4012"/><rect fill="none" height="605.0193" style="stroke:#000000;stroke-width:1.5;" width="354" x="132" y="1465.214"/><path d="M325,1465.214 L325,1475.0139 L315,1485.0139 L132,1485.0139 " fill="none" style="stroke:#000000;stroke-width:1.5;"/><text fill="#000000" font-family="sans-serif" font-size="14" font-weight="bold" lengthAdjust="spacing" textLength="58" x="135" y="1479.2199">function</text><text fill="#000000" font-family="sans-serif" font-size="14" lengthAdjust="spacing" textLength="121" x="197" y="1479.2199">isValidCombination</text><rect fill="#F1F1F1" height="48.8002" rx="12.5" ry="12.5" style="stroke:#181818;stroke-width:0.5;" width="195" x="213" y="1495.0139"/><text fill="#000000" font-family="sans-serif" font-size="12" lengthAdjust="spacing" textLength="175" x="223" y="1516.162">List&lt;Allele&gt; currentCombination</text><text fill="#000000" font-family="sans-serif" font-size="12" lengthAdjust="spacing" textLength="64" x="223" y="1530.5621">Allele allele</text><rect fill="#F1F1F1" height="34.4001" rx="12.5" ry="12.5" style="stroke:#181818;stroke-width:0.5;" width="59" x="281" y="1563.8141"/><text fill="#000000" font-family="sans-serif" font-size="12" lengthAdjust="spacing" textLength="39" x="291" y="1584.9622">int i = 0</text><rect fill="#F1F1F1" height="34.4001" rx="12.5" ry="12.5" style="stroke:#181818;stroke-width:0.5;" width="289" x="166" y="1673.9331"/><text fill="#000000" font-family="sans-serif" font-size="12" lengthAdjust="spacing" textLength="269" x="176" y="1695.0812">Course c = currentCombination.get(i).getCourse()</text><rect fill="#F1F1F1" height="34.4001" rx="12.5" ry="12.5" style="stroke:#181818;stroke-width:0.5;" width="81" x="270" y="1779.333"/><text fill="#000000" font-family="sans-serif" font-size="12" lengthAdjust="spacing" textLength="61" x="280" y="1800.4811">return false</text><ellipse cx="310.5" cy="1852.4331" fill="none" rx="11" ry="11" style="stroke:#222222;stroke-width:1.0;"/><ellipse cx="310.5" cy="1852.4331" fill="#222222" rx="6" ry="6" style="stroke:#111111;stroke-width:1.0;"/><polygon fill="#F1F1F1" points="190,1728.3332,431,1728.3332,443,1741.5331,431,1754.733,190,1754.733,178,1741.5331,190,1728.3332" style="stroke:#181818;stroke-width:0.5;"/><text fill="#000000" font-family="sans-serif" font-size="11" lengthAdjust="spacing" textLength="18" x="314.5" y="1764.952">yes</text><text fill="#000000" font-family="sans-serif" font-size="11" lengthAdjust="spacing" textLength="241" x="190" y="1738.5521">c.getName().equals(allele.getCourse().getName()</text><text fill="#000000" font-family="sans-serif" font-size="11" lengthAdjust="spacing" textLength="226" x="190" y="1751.752">and professorNotRepeatedMoreThan4Times()</text><rect fill="#F1F1F1" height="34.4001" rx="12.5" ry="12.5" style="stroke:#181818;stroke-width:0.5;" width="37" x="292" y="1905.4331"/><text fill="#000000" font-family="sans-serif" font-size="12" lengthAdjust="spacing" textLength="17" x="302" y="1926.5812">i++</text><polygon fill="#F1F1F1" points="298.5,1618.2142,322.5,1618.2142,334.5,1630.2142,322.5,1642.2142,298.5,1642.2142,286.5,1630.2142,298.5,1618.2142" style="stroke:#181818;stroke-width:0.5;"/><text fill="#000000" font-family="sans-serif" font-size="11" lengthAdjust="spacing" textLength="144" x="314.5" y="1652.4331">not currentCombination.size()</text><text fill="#000000" font-family="sans-serif" font-size="11" lengthAdjust="spacing" textLength="2" x="309.5" y="1633.8332">i</text><rect fill="#F1F1F1" height="34.4001" rx="12.5" ry="12.5" style="stroke:#181818;stroke-width:0.5;" width="76" x="272.5" y="1981.8332"/><text fill="#000000" font-family="sans-serif" font-size="12" lengthAdjust="spacing" textLength="56" x="282.5" y="2002.9813">return true</text><ellipse cx="310.5" cy="2047.2333" fill="none" rx="11" ry="11" style="stroke:#222222;stroke-width:1.0;"/><ellipse cx="310.5" cy="2047.2333" fill="#222222" rx="6" ry="6" style="stroke:#111111;stroke-width:1.0;"/><line style="stroke:#181818;stroke-width:1.0;" x1="310.5" x2="310.5" y1="125.6001" y2="145.6001"/><polygon fill="#181818" points="306.5,135.6001,310.5,145.6001,314.5,135.6001,310.5,139.6001" style="stroke:#181818;stroke-width:1.0;"/><line style="stroke:#181818;stroke-width:1.0;" x1="310.5" x2="310.5" y1="180.0002" y2="200.0002"/><polygon fill="#181818" points="306.5,190.0002,310.5,200.0002,314.5,190.0002,310.5,194.0002" style="stroke:#181818;stroke-width:1.0;"/><line style="stroke:#181818;stroke-width:1.0;" x1="310.5" x2="310.5" y1="234.4003" y2="254.4003"/><polygon fill="#181818" points="306.5,244.4003,310.5,254.4003,314.5,244.4003,310.5,248.4003" style="stroke:#181818;stroke-width:1.0;"/><line style="stroke:#181818;stroke-width:1.0;" x1="310.5" x2="310.5" y1="30" y2="76.7999"/><polygon fill="#181818" points="306.5,66.7999,310.5,76.7999,314.5,66.7999,310.5,70.7999" style="stroke:#181818;stroke-width:1.0;"/><line style="stroke:#181818;stroke-width:1.0;" x1="310.5" x2="310.5" y1="346.2003" y2="366.2003"/><polygon fill="#181818" points="306.5,356.2003,310.5,366.2003,314.5,356.2003,310.5,360.2003" style="stroke:#181818;stroke-width:1.0;"/><line style="stroke:#181818;stroke-width:1.0;" x1="310.5" x2="310.5" y1="561.2008" y2="589.5008"/><polygon fill="#181818" points="306.5,579.5008,310.5,589.5008,314.5,579.5008,310.5,583.5008" style="stroke:#181818;stroke-width:1.0;"/><line style="stroke:#181818;stroke-width:1.0;" x1="310.5" x2="310.5" y1="502.2008" y2="526.8007"/><polygon fill="#181818" points="306.5,516.8007,310.5,526.8007,314.5,516.8007,310.5,520.8007" style="stroke:#181818;stroke-width:1.0;"/><line style="stroke:#181818;stroke-width:1.0;" x1="362" x2="485" y1="490.2008" y2="490.2008"/><polygon fill="#181818" points="481,559.5008,485,569.5008,489,559.5008,485,563.5008" style="stroke:#181818;stroke-width:1.0;"/><line style="stroke:#181818;stroke-width:1.0;" x1="485" x2="485" y1="490.2008" y2="633.5008"/><line style="stroke:#181818;stroke-width:1.0;" x1="485" x2="310.5" y1="633.5008" y2="633.5008"/><line style="stroke:#181818;stroke-width:1.0;" x1="310.5" x2="310.5" y1="633.5008" y2="653.5008"/><polygon fill="#181818" points="306.5,643.5008,310.5,653.5008,314.5,643.5008,310.5,647.5008" style="stroke:#181818;stroke-width:1.0;"/><line style="stroke:#181818;stroke-width:1.0;" x1="310.5" x2="310.5" y1="458.2008" y2="478.2008"/><polygon fill="#181818" points="306.5,468.2008,310.5,478.2008,314.5,468.2008,310.5,472.2008" style="stroke:#181818;stroke-width:1.0;"/><line style="stroke:#181818;stroke-width:1.0;" x1="310.5" x2="310.5" y1="903.4197" y2="923.4197"/><polygon fill="#181818" points="306.5,913.4197,310.5,923.4197,314.5,913.4197,310.5,917.4197" style="stroke:#181818;stroke-width:1.0;"/><line style="stroke:#181818;stroke-width:1.0;" x1="310.5" x2="310.5" y1="957.8198" y2="977.8198"/><polygon fill="#181818" points="306.5,967.8198,310.5,977.8198,314.5,967.8198,310.5,971.8198" style="stroke:#181818;stroke-width:1.0;"/><line style="stroke:#181818;stroke-width:1.0;" x1="310.5" x2="310.5" y1="997.8198" y2="1057.5197"/><polygon fill="#181818" points="306.5,1047.5197,310.5,1057.5197,314.5,1047.5197,310.5,1051.5197" style="stroke:#181818;stroke-width:1.0;"/><line style="stroke:#181818;stroke-width:1.0;" x1="310.5" x2="310.5" y1="1133.9198" y2="1153.9198"/><polygon fill="#181818" points="306.5,1143.9198,310.5,1153.9198,314.5,1143.9198,310.5,1147.9198" style="stroke:#181818;stroke-width:1.0;"/><line style="stroke:#181818;stroke-width:1.0;" x1="310.5" x2="310.5" y1="844.4197" y2="869.0196"/><polygon fill="#181818" points="306.5,859.0196,310.5,869.0196,314.5,859.0196,310.5,863.0196" style="stroke:#181818;stroke-width:1.0;"/><line style="stroke:#181818;stroke-width:1.0;" x1="452" x2="590" y1="831.2198" y2="831.2198"/><polygon fill="#181818" points="586,1021.0197,590,1031.0197,594,1021.0197,590,1025.0197" style="stroke:#181818;stroke-width:1.0;"/><line style="stroke:#181818;stroke-width:1.0;" x1="590" x2="590" y1="831.2198" y2="1220.3199"/><line style="stroke:#181818;stroke-width:1.0;" x1="590" x2="322.5" y1="1220.3199" y2="1220.3199"/><polygon fill="#181818" points="332.5,1216.3199,322.5,1220.3199,332.5,1224.3199,328.5,1220.3199" style="stroke:#181818;stroke-width:1.0;"/><line style="stroke:#181818;stroke-width:1.0;" x1="310.5" x2="310.5" y1="1188.3199" y2="1208.3199"/><polygon fill="#181818" points="306.5,1198.3199,310.5,1208.3199,314.5,1198.3199,310.5,1202.3199" style="stroke:#181818;stroke-width:1.0;"/><line style="stroke:#181818;stroke-width:1.0;" x1="310.5" x2="310.5" y1="798.0199" y2="818.0199"/><polygon fill="#181818" points="306.5,808.0199,310.5,818.0199,314.5,808.0199,310.5,812.0199" style="stroke:#181818;stroke-width:1.0;"/><line style="stroke:#181818;stroke-width:1.0;" x1="310.5" x2="310.5" y1="1232.3199" y2="1252.3199"/><polygon fill="#181818" points="306.5,1242.3199,310.5,1252.3199,314.5,1242.3199,310.5,1246.3199" style="stroke:#181818;stroke-width:1.0;"/><line style="stroke:#181818;stroke-width:1.0;" x1="310.5" x2="310.5" y1="731.9009" y2="763.6198"/><polygon fill="#181818" points="306.5,753.6198,310.5,763.6198,314.5,753.6198,310.5,757.6198" style="stroke:#181818;stroke-width:1.0;"/><line style="stroke:#181818;stroke-width:1.0;" x1="310.5" x2="310.5" y1="1286.72" y2="1296.72"/><line style="stroke:#181818;stroke-width:1.0;" x1="310.5" x2="608" y1="1296.72" y2="1296.72"/><polygon fill="#181818" points="604,1021.8198,608,1011.8198,612,1021.8198,608,1017.8198" style="stroke:#181818;stroke-width:1.0;"/><line style="stroke:#181818;stroke-width:1.0;" x1="608" x2="608" y1="719.9009" y2="1296.72"/><line style="stroke:#181818;stroke-width:1.0;" x1="608" x2="334.5" y1="719.9009" y2="719.9009"/><polygon fill="#181818" points="344.5,715.9009,334.5,719.9009,344.5,723.9009,340.5,719.9009" style="stroke:#181818;stroke-width:1.0;"/><line style="stroke:#181818;stroke-width:1.0;" x1="286.5" x2="27" y1="719.9009" y2="719.9009"/><polygon fill="#181818" points="23,1007.8198,27,1017.8198,31,1007.8198,27,1011.8198" style="stroke:#181818;stroke-width:1.0;"/><line style="stroke:#181818;stroke-width:1.0;" x1="27" x2="27" y1="719.9009" y2="1308.72"/><line style="stroke:#181818;stroke-width:1.0;" x1="27" x2="310.5" y1="1308.72" y2="1308.72"/><line style="stroke:#181818;stroke-width:1.0;" x1="310.5" x2="310.5" y1="1308.72" y2="1368.8139"/><polygon fill="#181818" points="306.5,1358.8139,310.5,1368.8139,314.5,1358.8139,310.5,1362.8139" style="stroke:#181818;stroke-width:1.0;"/><line style="stroke:#181818;stroke-width:1.0;" x1="310.5" x2="310.5" y1="687.9009" y2="707.9009"/><polygon fill="#181818" points="306.5,697.9009,310.5,707.9009,314.5,697.9009,310.5,701.9009" style="stroke:#181818;stroke-width:1.0;"/><line style="stroke:#181818;stroke-width:1.0;" x1="310.5" x2="310.5" y1="1403.214" y2="1423.214"/><polygon fill="#181818" points="306.5,1413.214,310.5,1423.214,314.5,1413.214,310.5,1417.214" style="stroke:#181818;stroke-width:1.0;"/><line style="stroke:#181818;stroke-width:1.0;" x1="310.5" x2="310.5" y1="1543.8141" y2="1563.8141"/><polygon fill="#181818" points="306.5,1553.8141,310.5,1563.8141,314.5,1553.8141,310.5,1557.8141" style="stroke:#181818;stroke-width:1.0;"/><line style="stroke:#181818;stroke-width:1.0;" x1="310.5" x2="310.5" y1="1813.7331" y2="1841.4331"/><polygon fill="#181818" points="306.5,1831.4331,310.5,1841.4331,314.5,1831.4331,310.5,1835.4331" style="stroke:#181818;stroke-width:1.0;"/><line style="stroke:#181818;stroke-width:1.0;" x1="310.5" x2="310.5" y1="1754.733" y2="1779.333"/><polygon fill="#181818" points="306.5,1769.333,310.5,1779.333,314.5,1769.333,310.5,1773.333" style="stroke:#181818;stroke-width:1.0;"/><line style="stroke:#181818;stroke-width:1.0;" x1="443" x2="455" y1="1741.5331" y2="1741.5331"/><polygon fill="#181818" points="451,1811.4331,455,1821.4331,459,1811.4331,455,1815.4331" style="stroke:#181818;stroke-width:1.0;"/><line style="stroke:#181818;stroke-width:1.0;" x1="455" x2="455" y1="1741.5331" y2="1885.4331"/><line style="stroke:#181818;stroke-width:1.0;" x1="455" x2="310.5" y1="1885.4331" y2="1885.4331"/><line style="stroke:#181818;stroke-width:1.0;" x1="310.5" x2="310.5" y1="1885.4331" y2="1905.4331"/><polygon fill="#181818" points="306.5,1895.4331,310.5,1905.4331,314.5,1895.4331,310.5,1899.4331" style="stroke:#181818;stroke-width:1.0;"/><line style="stroke:#181818;stroke-width:1.0;" x1="310.5" x2="310.5" y1="1708.3332" y2="1728.3332"/><polygon fill="#181818" points="306.5,1718.3332,310.5,1728.3332,314.5,1718.3332,310.5,1722.3332" style="stroke:#181818;stroke-width:1.0;"/><line style="stroke:#181818;stroke-width:1.0;" x1="310.5" x2="310.5" y1="1642.2142" y2="1673.9331"/><polygon fill="#181818" points="306.5,1663.9331,310.5,1673.9331,314.5,1663.9331,310.5,1667.9331" style="stroke:#181818;stroke-width:1.0;"/><line style="stroke:#181818;stroke-width:1.0;" x1="310.5" x2="310.5" y1="1939.8332" y2="1949.8332"/><line style="stroke:#181818;stroke-width:1.0;" x1="310.5" x2="467" y1="1949.8332" y2="1949.8332"/><polygon fill="#181818" points="463,1806.2332,467,1796.2332,471,1806.2332,467,1802.2332" style="stroke:#181818;stroke-width:1.0;"/><line style="stroke:#181818;stroke-width:1.0;" x1="467" x2="467" y1="1630.2142" y2="1949.8332"/><line style="stroke:#181818;stroke-width:1.0;" x1="467" x2="334.5" y1="1630.2142" y2="1630.2142"/><polygon fill="#181818" points="344.5,1626.2142,334.5,1630.2142,344.5,1634.2142,340.5,1630.2142" style="stroke:#181818;stroke-width:1.0;"/><line style="stroke:#181818;stroke-width:1.0;" x1="286.5" x2="154" y1="1630.2142" y2="1630.2142"/><polygon fill="#181818" points="150,1792.2332,154,1802.2332,158,1792.2332,154,1796.2332" style="stroke:#181818;stroke-width:1.0;"/><line style="stroke:#181818;stroke-width:1.0;" x1="154" x2="154" y1="1630.2142" y2="1961.8332"/><line style="stroke:#181818;stroke-width:1.0;" x1="154" x2="310.5" y1="1961.8332" y2="1961.8332"/><line style="stroke:#181818;stroke-width:1.0;" x1="310.5" x2="310.5" y1="1961.8332" y2="1981.8332"/><polygon fill="#181818" points="306.5,1971.8332,310.5,1981.8332,314.5,1971.8332,310.5,1975.8332" style="stroke:#181818;stroke-width:1.0;"/><line style="stroke:#181818;stroke-width:1.0;" x1="310.5" x2="310.5" y1="1598.2142" y2="1618.2142"/><polygon fill="#181818" points="306.5,1608.2142,310.5,1618.2142,314.5,1608.2142,310.5,1612.2142" style="stroke:#181818;stroke-width:1.0;"/><line style="stroke:#181818;stroke-width:1.0;" x1="310.5" x2="310.5" y1="2016.2333" y2="2036.2333"/><polygon fill="#181818" points="306.5,2026.2333,310.5,2036.2333,314.5,2026.2333,310.5,2030.2333" style="stroke:#181818;stroke-width:1.0;"/><!--SRC=[bLJBRjim4BphAxOtqdO51-WfJWq4lgOvk45FkR3IAYOWaGv9DKW3_tj8aNfGafr41pseuSm-PgaDKoP9ZlRE3PS25ekY5fbxNIpW2SrELd-vO6v1mri2zhg-uzhSt9ObbhW5UwjGc4V1XO6iH__c_t7ZyTcGuoS8V85RfTXhmxCbDC2UKA1Y1eUI9D3hrPXxDUM9C7R7EZ2J7MsUEHgM7PBJXNod4OIaMuxPv7NpQwO0pNgq8wkLiZi62Zrc2Dn6kNJyslLha_Zl0iX8ZmBNGDOKp04zyQG1ASjpCYxTD2eQQkSkRUIn-K2HyyABNtFRoRN7l1nuYK2uLnVIT7L9jGsAKDg7ujDh0PQZWrgpMOfUrQNtRHfOcabX6E-jGHy54xcL_iDAdW-GCrcjMZdgImJa5NKVdI_MLDALhDsuYT5VCoryXwiLpCKLEvV34gv6KcHFasZXwoQE8j-ZZKDZB7AA9SB4JEBug60AA_aFPneG3E7gC4ZF-weZvClbflLRuwsB8pjxH2aqjH9HLJlA2snJ4ysUUMU6E7YRDGyl5sR5EdqmBsU6vcor1kEpawvda5co6RWVeRIfYSEvepMQfypzksUL_PFYSyrAJNoqmpqzna_MKSa2jPRgNfez7j5wA_yb5JuScFZnm2lKvC8uXKuKLclajUvO-PG5ehuQLGUoXkIKl0C0]--></g></svg>