<?xml version="1.0" encoding="us-ascii" standalone="no"?><svg xmlns="http://www.w3.org/2000/svg" xmlns:xlink="http://www.w3.org/1999/xlink" contentStyleType="text/css" height="186px" preserveAspectRatio="none" style="width:229px;height:186px;background:#FFFFFF;" version="1.1" viewBox="0 0 229 186" width="229px" zoomAndPan="magnify"><defs/><g><!--class Course--><g id="elem_Course"><rect codeLine="1" fill="#F1F1F1" height="165.5995" id="Course" rx="2.5" ry="2.5" style="stroke:#181818;stroke-width:0.5;" width="208" x="7" y="7"/><ellipse cx="83.75" cy="23" fill="#ADD1B2" rx="11" ry="11" style="stroke:#181818;stroke-width:1.0;"/><path d="M78.75,24.1563 C78.75,26.6563 80.8906,28.4688 83.8125,28.4688 C85.0469,28.4688 86.2188,28.1719 86.9688,27.6563 C87.5781,27.2344 87.9063,26.8125 87.9063,26.4063 C87.9063,25.9375 87.4844,25.5313 86.9844,25.5313 C86.75,25.5313 86.5313,25.6094 86.3281,25.8125 C85.8906,26.25 85.8906,26.25 85.7188,26.3438 C85.2656,26.5781 84.625,26.7188 83.8594,26.7188 C81.8594,26.7188 80.5781,25.7031 80.5781,24.125 L80.5781,23.0781 C80.5781,21.375 81.7969,20.1719 83.5,20.1719 C84.0781,20.1719 84.6563,20.3125 85.125,20.5625 C85.5938,20.8281 85.7656,21.0156 85.8281,21.375 C85.9531,22.0469 86.2031,22.2969 86.7344,22.2969 C87.0156,22.2969 87.2969,22.1563 87.4844,21.9375 C87.6094,21.7656 87.6563,21.5938 87.6563,21.1563 L87.6563,19.7969 C87.6563,19.375 87.6406,19.2344 87.5156,19.0625 C87.3438,18.8125 87.0625,18.6563 86.7344,18.6563 C86.4219,18.6563 86.2188,18.7656 86,19.0313 C84.8281,18.5313 84.3906,18.4219 83.4375,18.4219 C80.7656,18.4219 78.75,20.4375 78.75,23.0625 L78.75,24.1563 Z " fill="#000000"/><text fill="#000000" font-family="sans-serif" font-size="14" lengthAdjust="spacing" textLength="46" x="104.25" y="27.606">Course</text><line style="stroke:#181818;stroke-width:0.5;" x1="8" x2="214" y1="39" y2="39"/><rect fill="none" height="6" style="stroke:#C82930;stroke-width:1.0;" width="6" x="15" y="49.9"/><text fill="#000000" font-family="sans-serif" font-size="14" lengthAdjust="spacing" textLength="81" x="27" y="56.0059">name: String</text><rect fill="none" height="6" style="stroke:#C82930;stroke-width:1.0;" width="6" x="15" y="66.6999"/><text fill="#000000" font-family="sans-serif" font-size="14" lengthAdjust="spacing" textLength="57" x="27" y="72.8059">index: int</text><line style="stroke:#181818;stroke-width:0.5;" x1="8" x2="214" y1="80.5999" y2="80.5999"/><ellipse cx="18" cy="94.4998" fill="#84BE84" rx="3" ry="3" style="stroke:#038048;stroke-width:1.0;"/><text fill="#000000" font-family="sans-serif" font-size="14" lengthAdjust="spacing" textLength="137" x="27" y="97.6058">Course(name: String)</text><ellipse cx="18" cy="111.2997" fill="#84BE84" rx="3" ry="3" style="stroke:#038048;stroke-width:1.0;"/><text fill="#000000" font-family="sans-serif" font-size="14" lengthAdjust="spacing" textLength="113" x="27" y="114.4057">getName(): String</text><ellipse cx="18" cy="128.0997" fill="#84BE84" rx="3" ry="3" style="stroke:#038048;stroke-width:1.0;"/><text fill="#000000" font-family="sans-serif" font-size="14" lengthAdjust="spacing" textLength="182" x="27" y="131.2057">setName(name: String): void</text><ellipse cx="18" cy="144.8996" fill="#84BE84" rx="3" ry="3" style="stroke:#038048;stroke-width:1.0;"/><text fill="#000000" font-family="sans-serif" font-size="14" lengthAdjust="spacing" textLength="88" x="27" y="148.0056">getIndex(): int</text><ellipse cx="18" cy="161.6995" fill="#84BE84" rx="3" ry="3" style="stroke:#038048;stroke-width:1.0;"/><text fill="#000000" font-family="sans-serif" font-size="14" lengthAdjust="spacing" textLength="104" x="27" y="164.8055">toString(): String</text></g><!--SRC=[Iyv9B2vMSCulBIfELQZcKb3GLSXBp4srKWWkAShCImSBPEQbf5PO0QaIBY1V6wfQ0rcT9bWYFRN43oYeeOcaNLkX62gAejvAeIm_CmMconDa0qWRo0wGM4a-H1sIKRK0]--></g></svg>