<?xml version="1.0" encoding="us-ascii" standalone="no"?><svg xmlns="http://www.w3.org/2000/svg" xmlns:xlink="http://www.w3.org/1999/xlink" contentStyleType="text/css" height="136px" preserveAspectRatio="none" style="width:243px;height:136px;background:#FFFFFF;" version="1.1" viewBox="0 0 243 136" width="243px" zoomAndPan="magnify"><defs/><g><!--class ErrorCodes--><g id="elem_ErrorCodes"><rect codeLine="1" fill="#F1F1F1" height="115.1997" id="ErrorCodes" rx="2.5" ry="2.5" style="stroke:#181818;stroke-width:0.5;" width="222" x="7" y="7"/><ellipse cx="77.25" cy="23" fill="#EB937F" rx="11" ry="11" style="stroke:#181818;stroke-width:1.0;"/><path d="M76.1094,24.0625 L77.4219,24.0625 L77.4219,24.1094 C77.4219,24.5156 77.4375,24.6719 77.5469,24.8281 C77.7188,25.0781 78.0156,25.25 78.3281,25.25 C78.6094,25.25 78.9063,25.1094 79.0781,24.8906 C79.2031,24.7031 79.25,24.5625 79.25,24.1094 L79.25,22.2656 C79.25,21.9375 79.2344,21.8281 79.1719,21.6563 C79.0625,21.3594 78.7031,21.1094 78.3281,21.1094 C78.0313,21.1094 77.7656,21.25 77.5938,21.4688 C77.4531,21.6563 77.4219,21.8281 77.4219,22.2656 L77.4219,22.3281 L76.1094,22.3281 L76.1094,20.1563 L79.9531,20.1563 L79.9531,20.9063 C79.9531,21.2969 79.9844,21.4844 80.0938,21.6406 C80.2656,21.8906 80.5625,22.0625 80.875,22.0625 C81.1719,22.0625 81.4375,21.9375 81.625,21.7031 C81.7656,21.5156 81.7969,21.375 81.7969,20.9063 L81.7969,18.4063 L74.0938,18.4063 C73.6406,18.4063 73.5156,18.4219 73.3438,18.5313 C73.0781,18.7031 72.9063,18.9688 72.9063,19.2813 C72.9063,19.5625 73.0313,19.8281 73.2813,20 C73.4688,20.125 73.6563,20.1563 74.0938,20.1563 L74.2813,20.1563 L74.2813,26.25 L74.0938,26.25 C73.6719,26.25 73.5156,26.2813 73.3438,26.375 C73.0781,26.5313 72.9063,26.8125 72.9063,27.1094 C72.9063,27.6875 73.3125,28 74.0938,28 L82.1719,28 L82.1719,25.4688 C82.1719,25.0625 82.1406,24.8906 82.0313,24.7344 C81.8594,24.4688 81.5781,24.3125 81.25,24.3125 C80.9688,24.3125 80.6875,24.4531 80.5,24.6719 C80.3594,24.8594 80.3281,25.0156 80.3281,25.4688 L80.3281,26.25 L76.1094,26.25 L76.1094,24.0625 Z " fill="#000000"/><text fill="#000000" font-family="sans-serif" font-size="14" lengthAdjust="spacing" textLength="73" x="97.75" y="27.606">ErrorCodes</text><line style="stroke:#181818;stroke-width:0.5;" x1="8" x2="228" y1="39" y2="39"/><rect fill="none" height="6" style="stroke:#C82930;stroke-width:1.0;" width="6" x="15" y="49.9"/><text fill="#000000" font-family="sans-serif" font-size="14" lengthAdjust="spacing" textLength="146" x="27" y="56.0059">CROSSOVER_ERROR</text><rect fill="none" height="6" style="stroke:#C82930;stroke-width:1.0;" width="6" x="15" y="66.6999"/><text fill="#000000" font-family="sans-serif" font-size="14" lengthAdjust="spacing" textLength="135" x="27" y="72.8059">ERROR_INCAPABLE</text><rect fill="none" height="6" style="stroke:#C82930;stroke-width:1.0;" width="6" x="15" y="83.4998"/><text fill="#000000" font-family="sans-serif" font-size="14" lengthAdjust="spacing" textLength="196" x="27" y="89.6058">MAX_ATTEMPTS_EXCEEDED</text><rect fill="none" height="6" style="stroke:#C82930;stroke-width:1.0;" width="6" x="15" y="100.2997"/><text fill="#000000" font-family="sans-serif" font-size="14" lengthAdjust="spacing" textLength="79" x="27" y="106.4057">NO_ERROR</text><line style="stroke:#181818;stroke-width:0.5;" x1="8" x2="228" y1="114.1997" y2="114.1997"/></g><!--SRC=[IyqhpLLmBIhABtBEJqajLgZcKb3GLN0EyWyEzWzp3Oft3Gho3mABWLdnddxEZW6EJZwkO35VnuXunv0GLz-0aE1urmXdLrSNLnUmZ9y_L6ij0000]--></g></svg>