<?xml version="1.0" encoding="us-ascii" standalone="no"?><svg xmlns="http://www.w3.org/2000/svg" xmlns:xlink="http://www.w3.org/1999/xlink" contentStyleType="text/css" height="739px" preserveAspectRatio="none" style="width:450px;height:739px;background:#FFFFFF;" version="1.1" viewBox="0 0 450 739" width="450px" zoomAndPan="magnify"><defs/><g><!--class Allele--><g id="elem_Allele"><rect codeLine="1" fill="#F1F1F1" height="266.399" id="Allele" rx="2.5" ry="2.5" style="stroke:#181818;stroke-width:0.5;" width="372" x="7" y="236.6"/><ellipse cx="171.75" cy="252.6" fill="#ADD1B2" rx="11" ry="11" style="stroke:#181818;stroke-width:1.0;"/><path d="M166.75,253.7563 C166.75,256.2563 168.8906,258.0688 171.8125,258.0688 C173.0469,258.0688 174.2188,257.7719 174.9688,257.2563 C175.5781,256.8344 175.9063,256.4125 175.9063,256.0063 C175.9063,255.5375 175.4844,255.1313 174.9844,255.1313 C174.75,255.1313 174.5313,255.2094 174.3281,255.4125 C173.8906,255.85 173.8906,255.85 173.7188,255.9438 C173.2656,256.1781 172.625,256.3188 171.8594,256.3188 C169.8594,256.3188 168.5781,255.3031 168.5781,253.725 L168.5781,252.6781 C168.5781,250.975 169.7969,249.7719 171.5,249.7719 C172.0781,249.7719 172.6563,249.9125 173.125,250.1625 C173.5938,250.4281 173.7656,250.6156 173.8281,250.975 C173.9531,251.6469 174.2031,251.8969 174.7344,251.8969 C175.0156,251.8969 175.2969,251.7563 175.4844,251.5375 C175.6094,251.3656 175.6563,251.1938 175.6563,250.7563 L175.6563,249.3969 C175.6563,248.975 175.6406,248.8344 175.5156,248.6625 C175.3438,248.4125 175.0625,248.2563 174.7344,248.2563 C174.4219,248.2563 174.2188,248.3656 174,248.6313 C172.8281,248.1313 172.3906,248.0219 171.4375,248.0219 C168.7656,248.0219 166.75,250.0375 166.75,252.6625 L166.75,253.7563 Z " fill="#000000"/><text fill="#000000" font-family="sans-serif" font-size="14" lengthAdjust="spacing" textLength="34" x="192.25" y="257.206">Allele</text><line style="stroke:#181818;stroke-width:0.5;" x1="8" x2="378" y1="268.6" y2="268.6"/><rect fill="none" height="6" style="stroke:#C82930;stroke-width:1.0;" width="6" x="15" y="279.5"/><text fill="#000000" font-family="sans-serif" font-size="14" lengthAdjust="spacing" textLength="129" x="27" y="285.6059">professor: Professor</text><rect fill="none" height="6" style="stroke:#C82930;stroke-width:1.0;" width="6" x="15" y="296.2999"/><text fill="#000000" font-family="sans-serif" font-size="14" lengthAdjust="spacing" textLength="97" x="27" y="302.4059">course: Course</text><rect fill="none" height="6" style="stroke:#C82930;stroke-width:1.0;" width="6" x="15" y="313.0998"/><text fill="#000000" font-family="sans-serif" font-size="14" lengthAdjust="spacing" textLength="60" x="27" y="319.2058">grade: int</text><line style="stroke:#181818;stroke-width:0.5;" x1="8" x2="378" y1="326.9998" y2="326.9998"/><ellipse cx="18" cy="340.8997" fill="#84BE84" rx="3" ry="3" style="stroke:#038048;stroke-width:1.0;"/><text fill="#000000" font-family="sans-serif" font-size="14" lengthAdjust="spacing" textLength="346" x="27" y="344.0057">Allele(professor: Professor, course: Course, grade: int)</text><ellipse cx="18" cy="357.6997" fill="#84BE84" rx="3" ry="3" style="stroke:#038048;stroke-width:1.0;"/><text fill="#000000" font-family="sans-serif" font-size="14" lengthAdjust="spacing" textLength="106" x="27" y="360.8057">getAllele(): Allele</text><ellipse cx="18" cy="374.4996" fill="#84BE84" rx="3" ry="3" style="stroke:#038048;stroke-width:1.0;"/><text fill="#000000" font-family="sans-serif" font-size="14" lengthAdjust="spacing" textLength="172" x="27" y="377.6056">setAllele(allele: Allele): void</text><ellipse cx="18" cy="391.2995" fill="#84BE84" rx="3" ry="3" style="stroke:#038048;stroke-width:1.0;"/><text fill="#000000" font-family="sans-serif" font-size="14" lengthAdjust="spacing" textLength="160" x="27" y="394.4055">getProfessor(): Professor</text><ellipse cx="18" cy="408.0995" fill="#84BE84" rx="3" ry="3" style="stroke:#038048;stroke-width:1.0;"/><text fill="#000000" font-family="sans-serif" font-size="14" lengthAdjust="spacing" textLength="253" x="27" y="411.2054">setProfessor(professor: Professor): void</text><ellipse cx="18" cy="424.8994" fill="#84BE84" rx="3" ry="3" style="stroke:#038048;stroke-width:1.0;"/><text fill="#000000" font-family="sans-serif" font-size="14" lengthAdjust="spacing" textLength="130" x="27" y="428.0054">getCourse(): Course</text><ellipse cx="18" cy="441.6993" fill="#84BE84" rx="3" ry="3" style="stroke:#038048;stroke-width:1.0;"/><text fill="#000000" font-family="sans-serif" font-size="14" lengthAdjust="spacing" textLength="206" x="27" y="444.8053">setCourse(course: Course): void</text><ellipse cx="18" cy="458.4992" fill="#84BE84" rx="3" ry="3" style="stroke:#038048;stroke-width:1.0;"/><text fill="#000000" font-family="sans-serif" font-size="14" lengthAdjust="spacing" textLength="93" x="27" y="461.6052">getGrade(): int</text><ellipse cx="18" cy="475.2992" fill="#84BE84" rx="3" ry="3" style="stroke:#038048;stroke-width:1.0;"/><text fill="#000000" font-family="sans-serif" font-size="14" lengthAdjust="spacing" textLength="163" x="27" y="478.4051">setGrade(grade: int): void</text><ellipse cx="18" cy="492.0991" fill="#84BE84" rx="3" ry="3" style="stroke:#038048;stroke-width:1.0;"/><text fill="#000000" font-family="sans-serif" font-size="14" lengthAdjust="spacing" textLength="104" x="27" y="495.2051">toString(): String</text></g><!--class Professor--><g id="elem_Professor"><rect codeLine="18" fill="#F1F1F1" height="165.5995" id="Professor" rx="2.5" ry="2.5" style="stroke:#181818;stroke-width:0.5;" width="236" x="75" y="7"/><ellipse cx="158.25" cy="23" fill="#ADD1B2" rx="11" ry="11" style="stroke:#181818;stroke-width:1.0;"/><path d="M153.25,24.1563 C153.25,26.6563 155.3906,28.4688 158.3125,28.4688 C159.5469,28.4688 160.7188,28.1719 161.4688,27.6563 C162.0781,27.2344 162.4063,26.8125 162.4063,26.4063 C162.4063,25.9375 161.9844,25.5313 161.4844,25.5313 C161.25,25.5313 161.0313,25.6094 160.8281,25.8125 C160.3906,26.25 160.3906,26.25 160.2188,26.3438 C159.7656,26.5781 159.125,26.7188 158.3594,26.7188 C156.3594,26.7188 155.0781,25.7031 155.0781,24.125 L155.0781,23.0781 C155.0781,21.375 156.2969,20.1719 158,20.1719 C158.5781,20.1719 159.1563,20.3125 159.625,20.5625 C160.0938,20.8281 160.2656,21.0156 160.3281,21.375 C160.4531,22.0469 160.7031,22.2969 161.2344,22.2969 C161.5156,22.2969 161.7969,22.1563 161.9844,21.9375 C162.1094,21.7656 162.1563,21.5938 162.1563,21.1563 L162.1563,19.7969 C162.1563,19.375 162.1406,19.2344 162.0156,19.0625 C161.8438,18.8125 161.5625,18.6563 161.2344,18.6563 C160.9219,18.6563 160.7188,18.7656 160.5,19.0313 C159.3281,18.5313 158.8906,18.4219 157.9375,18.4219 C155.2656,18.4219 153.25,20.4375 153.25,23.0625 L153.25,24.1563 Z " fill="#000000"/><text fill="#000000" font-family="sans-serif" font-size="14" lengthAdjust="spacing" textLength="61" x="178.75" y="27.606">Professor</text><line style="stroke:#181818;stroke-width:0.5;" x1="76" x2="310" y1="39" y2="39"/><rect fill="none" height="6" style="stroke:#C82930;stroke-width:1.0;" width="6" x="83" y="49.9"/><text fill="#000000" font-family="sans-serif" font-size="14" lengthAdjust="spacing" textLength="81" x="95" y="56.0059">name: String</text><rect fill="none" height="6" style="stroke:#C82930;stroke-width:1.0;" width="6" x="83" y="66.6999"/><text fill="#000000" font-family="sans-serif" font-size="14" lengthAdjust="spacing" textLength="57" x="95" y="72.8059">index: int</text><line style="stroke:#181818;stroke-width:0.5;" x1="76" x2="310" y1="80.5999" y2="80.5999"/><ellipse cx="86" cy="94.4998" fill="#84BE84" rx="3" ry="3" style="stroke:#038048;stroke-width:1.0;"/><text fill="#000000" font-family="sans-serif" font-size="14" lengthAdjust="spacing" textLength="152" x="95" y="97.6058">Professor(name: String)</text><ellipse cx="86" cy="111.2997" fill="#84BE84" rx="3" ry="3" style="stroke:#038048;stroke-width:1.0;"/><text fill="#000000" font-family="sans-serif" font-size="14" lengthAdjust="spacing" textLength="113" x="95" y="114.4057">getName(): String</text><ellipse cx="86" cy="128.0997" fill="#84BE84" rx="3" ry="3" style="stroke:#038048;stroke-width:1.0;"/><text fill="#000000" font-family="sans-serif" font-size="14" lengthAdjust="spacing" textLength="210" x="95" y="131.2057">setName(newName: String): void</text><ellipse cx="86" cy="144.8996" fill="#84BE84" rx="3" ry="3" style="stroke:#038048;stroke-width:1.0;"/><text fill="#000000" font-family="sans-serif" font-size="14" lengthAdjust="spacing" textLength="88" x="95" y="148.0056">getIndex(): int</text><ellipse cx="86" cy="161.6995" fill="#84BE84" rx="3" ry="3" style="stroke:#038048;stroke-width:1.0;"/><text fill="#000000" font-family="sans-serif" font-size="14" lengthAdjust="spacing" textLength="104" x="95" y="164.8055">toString(): String</text></g><!--class Course--><g id="elem_Course"><rect codeLine="29" fill="#F1F1F1" height="165.5995" id="Course" rx="2.5" ry="2.5" style="stroke:#181818;stroke-width:0.5;" width="208" x="89" y="566.6"/><ellipse cx="165.75" cy="582.6" fill="#ADD1B2" rx="11" ry="11" style="stroke:#181818;stroke-width:1.0;"/><path d="M160.75,583.7563 C160.75,586.2563 162.8906,588.0688 165.8125,588.0688 C167.0469,588.0688 168.2188,587.7719 168.9688,587.2563 C169.5781,586.8344 169.9063,586.4125 169.9063,586.0063 C169.9063,585.5375 169.4844,585.1313 168.9844,585.1313 C168.75,585.1313 168.5313,585.2094 168.3281,585.4125 C167.8906,585.85 167.8906,585.85 167.7188,585.9438 C167.2656,586.1781 166.625,586.3188 165.8594,586.3188 C163.8594,586.3188 162.5781,585.3031 162.5781,583.725 L162.5781,582.6781 C162.5781,580.975 163.7969,579.7719 165.5,579.7719 C166.0781,579.7719 166.6563,579.9125 167.125,580.1625 C167.5938,580.4281 167.7656,580.6156 167.8281,580.975 C167.9531,581.6469 168.2031,581.8969 168.7344,581.8969 C169.0156,581.8969 169.2969,581.7563 169.4844,581.5375 C169.6094,581.3656 169.6563,581.1938 169.6563,580.7563 L169.6563,579.3969 C169.6563,578.975 169.6406,578.8344 169.5156,578.6625 C169.3438,578.4125 169.0625,578.2563 168.7344,578.2563 C168.4219,578.2563 168.2188,578.3656 168,578.6313 C166.8281,578.1313 166.3906,578.0219 165.4375,578.0219 C162.7656,578.0219 160.75,580.0375 160.75,582.6625 L160.75,583.7563 Z " fill="#000000"/><text fill="#000000" font-family="sans-serif" font-size="14" lengthAdjust="spacing" textLength="46" x="186.25" y="587.206">Course</text><line style="stroke:#181818;stroke-width:0.5;" x1="90" x2="296" y1="598.6" y2="598.6"/><rect fill="none" height="6" style="stroke:#C82930;stroke-width:1.0;" width="6" x="97" y="609.5"/><text fill="#000000" font-family="sans-serif" font-size="14" lengthAdjust="spacing" textLength="81" x="109" y="615.6059">name: String</text><rect fill="none" height="6" style="stroke:#C82930;stroke-width:1.0;" width="6" x="97" y="626.2999"/><text fill="#000000" font-family="sans-serif" font-size="14" lengthAdjust="spacing" textLength="57" x="109" y="632.4059">index: int</text><line style="stroke:#181818;stroke-width:0.5;" x1="90" x2="296" y1="640.1999" y2="640.1999"/><ellipse cx="100" cy="654.0998" fill="#84BE84" rx="3" ry="3" style="stroke:#038048;stroke-width:1.0;"/><text fill="#000000" font-family="sans-serif" font-size="14" lengthAdjust="spacing" textLength="137" x="109" y="657.2058">Course(name: String)</text><ellipse cx="100" cy="670.8997" fill="#84BE84" rx="3" ry="3" style="stroke:#038048;stroke-width:1.0;"/><text fill="#000000" font-family="sans-serif" font-size="14" lengthAdjust="spacing" textLength="113" x="109" y="674.0057">getName(): String</text><ellipse cx="100" cy="687.6997" fill="#84BE84" rx="3" ry="3" style="stroke:#038048;stroke-width:1.0;"/><text fill="#000000" font-family="sans-serif" font-size="14" lengthAdjust="spacing" textLength="182" x="109" y="690.8057">setName(name: String): void</text><ellipse cx="100" cy="704.4996" fill="#84BE84" rx="3" ry="3" style="stroke:#038048;stroke-width:1.0;"/><text fill="#000000" font-family="sans-serif" font-size="14" lengthAdjust="spacing" textLength="88" x="109" y="707.6056">getIndex(): int</text><ellipse cx="100" cy="721.2995" fill="#84BE84" rx="3" ry="3" style="stroke:#038048;stroke-width:1.0;"/><text fill="#000000" font-family="sans-serif" font-size="14" lengthAdjust="spacing" textLength="104" x="109" y="724.4055">toString(): String</text></g><!--reverse link Professor to Allele--><g id="link_Professor_Allele"><path codeLine="40" d="M315.93,174.36 C384.32,225.27 443.94,280.6 380,280.6 " fill="none" id="Professor-backto-Allele" style="stroke:#181818;stroke-width:1.0;"/><polygon fill="#181818" points="312.42,171.02,317.2543,179.6007,316.432,174.004,322.0287,173.1816,312.42,171.02" style="stroke:#181818;stroke-width:1.0;"/></g><!--link Allele to Course--><g id="link_Allele_Course"><path codeLine="41" d="M380,296.6 C426.67,296.6 399.81,464.83 379,506.6 C362,540.72 332.46,568.89 301.85,590.88 " fill="none" id="Allele-to-Course" style="stroke:#181818;stroke-width:1.0;"/><polygon fill="#181818" points="298.33,594.08,307.9844,592.1326,302.4073,591.186,303.3539,585.6089,298.33,594.08" style="stroke:#181818;stroke-width:1.0;"/></g><!--SRC=[fL9B2i8m4Dtd5BEqQ2wGXI0kn4qHF45fOodKf2Jr0-BTJIRJD5KHnMmItinxysOcPLjO2wksbQs46mDtE7H67wIrsWZO3KyAbVfah1Imnfl0sXILmnhLCqJc93Xx9xHuqbWaz8pejUn98HEaHH4R8mLUGzZbdNLJZVnOpqjCkq2LCVxEv8jSyEgraivHY2BJfbxu6z-Zf_iXHMv0a_udj5xlUzEesjF2YzqPAt5ZqIakZOCgZZ9cUQ1HbRp6dSn7mYnDpHZvonsOr25_Y2fvoLDAz8Z4hQypDlRPTHZEjvPfiZ_x_Tji-592n9y1_DJnPVADXeomTU2LlYYN41m_0000]--></g></svg>