<?xml version="1.0" encoding="us-ascii" standalone="no"?><svg xmlns="http://www.w3.org/2000/svg" xmlns:xlink="http://www.w3.org/1999/xlink" contentStyleType="text/css" height="3118px" preserveAspectRatio="none" style="width:724px;height:3118px;background:#FFFFFF;" version="1.1" viewBox="0 0 724 3118" width="724px" zoomAndPan="magnify"><defs/><g><ellipse cx="335" cy="20" fill="#222222" rx="10" ry="10" style="stroke:#222222;stroke-width:1.0;"/><rect fill="none" height="3027.1167" style="stroke:#000000;stroke-width:1.5;" width="702.75" x="11" y="40"/><path d="M153,40 L153,49.7999 L143,59.7999 L11,59.7999 " fill="none" style="stroke:#000000;stroke-width:1.5;"/><text fill="#000000" font-family="sans-serif" font-size="14" font-weight="bold" lengthAdjust="spacing" textLength="58" x="14" y="54.0059">function</text><text fill="#000000" font-family="sans-serif" font-size="14" lengthAdjust="spacing" textLength="70" x="76" y="54.0059">runGenetic</text><polygon fill="#F1F1F1" points="310.5,76.7999,369.5,76.7999,359.5,125.6001,300.5,125.6001" style="stroke:#181818;stroke-width:0.5;"/><text fill="#000000" font-family="sans-serif" font-size="12" lengthAdjust="spacing" textLength="40" x="310.5" y="97.948">genetic</text><text fill="#000000" font-family="sans-serif" font-size="12" lengthAdjust="spacing" textLength="49" x="310.5" y="112.3481">fileName</text><rect fill="#F1F1F1" height="34.4001" style="stroke:#181818;stroke-width:0.5;" width="202" x="234" y="145.6001"/><text fill="#000000" font-family="sans-serif" font-size="12" lengthAdjust="spacing" textLength="182" x="244" y="166.7482">parsedData = loadData(filename)</text><rect fill="#F1F1F1" height="34.4001" style="stroke:#181818;stroke-width:0.5;" width="173" x="248.5" y="200.0002"/><text fill="#000000" font-family="sans-serif" font-size="12" lengthAdjust="spacing" textLength="153" x="258.5" y="221.1483">genetic.update(parsedData)</text><rect fill="#F1F1F1" height="34.4001" style="stroke:#181818;stroke-width:0.5;" width="224" x="223" y="254.4003"/><text fill="#000000" font-family="sans-serif" font-size="12" lengthAdjust="spacing" textLength="204" x="233" y="275.5484">error = genetic.createChromosomes()</text><polygon fill="#F1F1F1" points="304.5,357.4004,375.5,357.4004,365.5,391.8005,294.5,391.8005" style="stroke:#181818;stroke-width:0.5;"/><text fill="#000000" font-family="sans-serif" font-size="12" lengthAdjust="spacing" textLength="61" x="304.5" y="378.5485">return error</text><ellipse cx="335" cy="431.1004" fill="none" rx="11" ry="11" style="stroke:#222222;stroke-width:1.0;"/><ellipse cx="335" cy="431.1004" fill="#222222" rx="6" ry="6" style="stroke:#111111;stroke-width:1.0;"/><polygon fill="#F1F1F1" points="284,308.8004,386,308.8004,398,320.8004,386,332.8004,284,332.8004,272,320.8004,284,308.8004" style="stroke:#181818;stroke-width:0.5;"/><text fill="#000000" font-family="sans-serif" font-size="11" lengthAdjust="spacing" textLength="18" x="339" y="343.0194">yes</text><text fill="#000000" font-family="sans-serif" font-size="11" lengthAdjust="spacing" textLength="102" x="284" y="324.4194">error != NO_ERROR</text><text fill="#000000" font-family="sans-serif" font-size="11" lengthAdjust="spacing" textLength="12" x="398" y="317.8195">no</text><rect fill="#F1F1F1" height="34.4001" style="stroke:#181818;stroke-width:0.5;" width="309" x="180.5" y="484.1004"/><text fill="#000000" font-family="sans-serif" font-size="12" lengthAdjust="spacing" textLength="289" x="190.5" y="505.2485">totalOfGenerations = genetic.getTotalOfGenerations()</text><rect fill="#F1F1F1" height="34.4001" style="stroke:#181818;stroke-width:0.5;" width="43" x="313.5" y="594.2195"/><text fill="#000000" font-family="sans-serif" font-size="12" lengthAdjust="spacing" textLength="23" x="323.5" y="615.3675">i = 0</text><rect fill="#F1F1F1" height="34.4001" style="stroke:#181818;stroke-width:0.5;" width="43" x="313.5" y="704.3385"/><text fill="#000000" font-family="sans-serif" font-size="12" lengthAdjust="spacing" textLength="23" x="323.5" y="725.4866">j = 0</text><rect fill="#F1F1F1" height="34.4001" style="stroke:#181818;stroke-width:0.5;" width="178" x="246" y="876.0575"/><text fill="#000000" font-family="sans-serif" font-size="12" lengthAdjust="spacing" textLength="158" x="256" y="897.2055">parent1 = genetic.selection(i)</text><rect fill="#F1F1F1" height="34.4001" style="stroke:#181818;stroke-width:0.5;" width="178" x="246" y="930.4576"/><text fill="#000000" font-family="sans-serif" font-size="12" lengthAdjust="spacing" textLength="158" x="256" y="951.6056">parent2 = genetic.selection(j)</text><rect fill="#F1F1F1" height="34.4001" style="stroke:#181818;stroke-width:0.5;" width="274" x="198" y="984.8577"/><text fill="#000000" font-family="sans-serif" font-size="12" lengthAdjust="spacing" textLength="254" x="208" y="1006.0057">offspring = genetic.crossover(parent1, parent2)</text><polygon fill="#F1F1F1" points="297,1039.2578,373,1039.2578,385,1051.2578,373,1063.2578,297,1063.2578,285,1051.2578,297,1039.2578" style="stroke:#181818;stroke-width:0.5;"/><text fill="#000000" font-family="sans-serif" font-size="11" lengthAdjust="spacing" textLength="76" x="297" y="1054.8767">offspring == null</text><text fill="#000000" font-family="sans-serif" font-size="11" lengthAdjust="spacing" textLength="18" x="267" y="1048.2768">yes</text><text fill="#000000" font-family="sans-serif" font-size="11" lengthAdjust="spacing" textLength="12" x="385" y="1048.2768">no</text><rect fill="#F1F1F1" height="34.4001" style="stroke:#181818;stroke-width:0.5;" width="130" x="180.5" y="1073.2578"/><text fill="#000000" font-family="sans-serif" font-size="12" lengthAdjust="spacing" textLength="110" x="190.5" y="1094.4058">totalOfGenerations--</text><ellipse cx="247" cy="1129.1579" fill="#A80036" rx="1.5" ry="1.5" style="stroke:#A80036;stroke-width:1.0;"/><ellipse cx="336.5" cy="805.9575" fill="#A80036" rx="1.5" ry="1.5" style="stroke:#A80036;stroke-width:1.0;"/><line style="stroke:#A80036;stroke-width:1.0;" x1="245.5" x2="335" y1="1127.6579" y2="1127.6579"/><line style="stroke:#A80036;stroke-width:1.0;" x1="335" x2="335" y1="804.4575" y2="1127.6579"/><rect fill="#F1F1F1" height="34.4001" style="stroke:#181818;stroke-width:0.5;" width="188" x="330.5" y="1073.2578"/><text fill="#000000" font-family="sans-serif" font-size="12" lengthAdjust="spacing" textLength="168" x="340.5" y="1094.4058">add offspring to offspring buffer</text><rect fill="#F1F1F1" height="34.4001" style="stroke:#181818;stroke-width:0.5;" width="208" x="231" y="1150.6579"/><text fill="#000000" font-family="sans-serif" font-size="12" lengthAdjust="spacing" textLength="188" x="241" y="1171.8059">offspringFitness = offsprint.fitness()</text><rect fill="#F1F1F1" height="34.4001" style="stroke:#181818;stroke-width:0.5;" width="265" x="202.5" y="1205.058"/><text fill="#000000" font-family="sans-serif" font-size="12" lengthAdjust="spacing" textLength="245" x="212.5" y="1226.206">offsprintMutated = genetic.mutation(offspring)</text><polygon fill="#F1F1F1" points="229.5,1259.4581,440.5,1259.4581,452.5,1271.4581,440.5,1283.4581,229.5,1283.4581,217.5,1271.4581,229.5,1259.4581" style="stroke:#181818;stroke-width:0.5;"/><text fill="#000000" font-family="sans-serif" font-size="11" lengthAdjust="spacing" textLength="211" x="229.5" y="1275.077">offsprintMutated.fitness() &gt; offspringFitness</text><text fill="#000000" font-family="sans-serif" font-size="11" lengthAdjust="spacing" textLength="18" x="199.5" y="1268.4771">yes</text><text fill="#000000" font-family="sans-serif" font-size="11" lengthAdjust="spacing" textLength="12" x="452.5" y="1268.4771">no</text><rect fill="#F1F1F1" height="34.4001" style="stroke:#181818;stroke-width:0.5;" width="167" x="110.75" y="1293.4581"/><text fill="#000000" font-family="sans-serif" font-size="12" lengthAdjust="spacing" textLength="147" x="120.75" y="1314.6061">offspring = offsprintMutated</text><rect fill="#F1F1F1" height="34.4001" style="stroke:#181818;stroke-width:0.5;" width="356" x="297.75" y="1293.4581"/><text fill="#000000" font-family="sans-serif" font-size="12" lengthAdjust="spacing" textLength="336" x="307.75" y="1314.6061">signal that the mutated chromosome is worse than the original</text><polygon fill="#F1F1F1" points="335,1333.8582,347,1345.8582,335,1357.8582,323,1345.8582,335,1333.8582" style="stroke:#181818;stroke-width:0.5;"/><rect fill="#F1F1F1" height="34.4001" style="stroke:#181818;stroke-width:0.5;" width="212" x="229" y="1377.8582"/><text fill="#000000" font-family="sans-serif" font-size="12" lengthAdjust="spacing" textLength="192" x="239" y="1399.0062">offspringFitness = offspring.fitness()</text><rect fill="#F1F1F1" height="34.4001" style="stroke:#181818;stroke-width:0.5;" width="109" x="280.5" y="1432.2583"/><text fill="#000000" font-family="sans-serif" font-size="12" lengthAdjust="spacing" textLength="89" x="290.5" y="1453.4063">leastFitIndex = 0</text><rect fill="#F1F1F1" height="34.4001" style="stroke:#181818;stroke-width:0.5;" width="225" x="222.5" y="1486.6584"/><text fill="#000000" font-family="sans-serif" font-size="12" lengthAdjust="spacing" textLength="205" x="232.5" y="1507.8064">leastFitFitness = Integer.MAX_VALUE</text><rect fill="#F1F1F1" height="34.4001" style="stroke:#181818;stroke-width:0.5;" width="46" x="312" y="1541.0585"/><text fill="#000000" font-family="sans-serif" font-size="12" lengthAdjust="spacing" textLength="26" x="322" y="1562.2065">k = 0</text><rect fill="#F1F1F1" height="34.4001" style="stroke:#181818;stroke-width:0.5;" width="252" x="209" y="1651.1775"/><text fill="#000000" font-family="sans-serif" font-size="12" lengthAdjust="spacing" textLength="232" x="219" y="1672.3256">chromosome = genetic.getChromosome(k)</text><rect fill="#F1F1F1" height="34.4001" style="stroke:#181818;stroke-width:0.5;" width="260" x="205" y="1705.5776"/><text fill="#000000" font-family="sans-serif" font-size="12" lengthAdjust="spacing" textLength="240" x="215" y="1726.7257">chromosomeFitness = chromosome.fitness()</text><rect fill="#F1F1F1" height="34.4001" style="stroke:#181818;stroke-width:0.5;" width="208" x="231" y="1818.278"/><text fill="#000000" font-family="sans-serif" font-size="12" lengthAdjust="spacing" textLength="188" x="241" y="1839.4261">leastFitness = chromosomeFitness</text><rect fill="#F1F1F1" height="34.4001" style="stroke:#181818;stroke-width:0.5;" width="108" x="281" y="1887.6781"/><text fill="#000000" font-family="sans-serif" font-size="12" lengthAdjust="spacing" textLength="88" x="291" y="1908.8262">leastFitIndex = k</text><polygon fill="#F1F1F1" points="249.5,1770.278,420.5,1770.278,432.5,1782.278,420.5,1794.278,249.5,1794.278,237.5,1782.278,249.5,1770.278" style="stroke:#181818;stroke-width:0.5;"/><text fill="#000000" font-family="sans-serif" font-size="11" lengthAdjust="spacing" textLength="171" x="249.5" y="1785.897">chromosomeFitness &lt; leastFitness</text><text fill="#000000" font-family="sans-serif" font-size="11" lengthAdjust="spacing" textLength="12" x="432.5" y="1779.2971">no</text><polygon fill="#F1F1F1" points="335,1942.0782,347,1954.0782,335,1966.0782,323,1954.0782,335,1942.0782" style="stroke:#181818;stroke-width:0.5;"/><polygon fill="#F1F1F1" points="244,1595.4586,426,1595.4586,438,1607.4586,426,1619.4586,244,1619.4586,232,1607.4586,244,1595.4586" style="stroke:#181818;stroke-width:0.5;"/><text fill="#000000" font-family="sans-serif" font-size="11" lengthAdjust="spacing" textLength="18" x="339" y="1629.6775">yes</text><text fill="#000000" font-family="sans-serif" font-size="11" lengthAdjust="spacing" textLength="182" x="244" y="1611.0775">k &lt; genetic.getChromosomes().size()</text><text fill="#000000" font-family="sans-serif" font-size="11" lengthAdjust="spacing" textLength="12" x="220" y="1604.4776">no</text><rect fill="#F1F1F1" height="34.4001" style="stroke:#181818;stroke-width:0.5;" width="413" x="128.5" y="2056.6782"/><text fill="#000000" font-family="sans-serif" font-size="12" lengthAdjust="spacing" textLength="393" x="138.5" y="2077.8263">genetic.getChromosomes(leastFitIndex).setAlleles(offspring.getAlleles())</text><rect fill="#F1F1F1" height="34.4001" style="stroke:#181818;stroke-width:0.5;" width="75" x="297.5" y="2111.0783"/><text fill="#000000" font-family="sans-serif" font-size="12" lengthAdjust="spacing" textLength="55" x="307.5" y="2132.2264">add = true</text><rect fill="#F1F1F1" height="34.4001" style="stroke:#181818;stroke-width:0.5;" width="80" x="295" y="2269.7973"/><text fill="#000000" font-family="sans-serif" font-size="12" lengthAdjust="spacing" textLength="60" x="305" y="2290.9453">add = false</text><polygon fill="#F1F1F1" points="230,2221.1973,440,2221.1973,452,2233.1973,440,2245.1973,230,2245.1973,218,2233.1973,230,2221.1973" style="stroke:#181818;stroke-width:0.5;"/><text fill="#000000" font-family="sans-serif" font-size="11" lengthAdjust="spacing" textLength="18" x="339" y="2255.4162">yes</text><text fill="#000000" font-family="sans-serif" font-size="11" lengthAdjust="spacing" textLength="210" x="230" y="2236.8163">chromosome.fitness() == offspring.fitness()</text><text fill="#000000" font-family="sans-serif" font-size="11" lengthAdjust="spacing" textLength="12" x="452" y="2230.2163">no</text><polygon fill="#F1F1F1" points="249.5,2165.4784,420.5,2165.4784,432.5,2177.4784,420.5,2189.4784,249.5,2189.4784,237.5,2177.4784,249.5,2165.4784" style="stroke:#181818;stroke-width:0.5;"/><text fill="#000000" font-family="sans-serif" font-size="11" lengthAdjust="spacing" textLength="18" x="339" y="2199.6973">yes</text><text fill="#000000" font-family="sans-serif" font-size="11" lengthAdjust="spacing" textLength="171" x="249.5" y="2181.0974">chromosome in bestChromosomes</text><text fill="#000000" font-family="sans-serif" font-size="11" lengthAdjust="spacing" textLength="12" x="225.5" y="2174.4974">no</text><rect fill="#F1F1F1" height="34.4001" style="stroke:#181818;stroke-width:0.5;" width="182" x="244" y="2483.3973"/><text fill="#000000" font-family="sans-serif" font-size="12" lengthAdjust="spacing" textLength="162" x="254" y="2504.5453">bestChromosomes.remove(0)</text><polygon fill="#F1F1F1" points="261,2434.7973,409,2434.7973,421,2446.7973,409,2458.7973,261,2458.7973,249,2446.7973,261,2434.7973" style="stroke:#181818;stroke-width:0.5;"/><text fill="#000000" font-family="sans-serif" font-size="11" lengthAdjust="spacing" textLength="18" x="339" y="2469.0162">yes</text><text fill="#000000" font-family="sans-serif" font-size="11" lengthAdjust="spacing" textLength="148" x="261" y="2450.4163">bestChromosomes.size() &gt;= 5</text><text fill="#000000" font-family="sans-serif" font-size="11" lengthAdjust="spacing" textLength="12" x="421" y="2443.8163">no</text><polygon fill="#F1F1F1" points="335,2537.7974,347,2549.7974,335,2561.7974,323,2549.7974,335,2537.7974" style="stroke:#181818;stroke-width:0.5;"/><rect fill="#F1F1F1" height="34.4001" style="stroke:#181818;stroke-width:0.5;" width="64" x="303" y="2637.5163"/><text fill="#000000" font-family="sans-serif" font-size="12" lengthAdjust="spacing" textLength="44" x="313" y="2658.6644">index++</text><polygon fill="#F1F1F1" points="105,2581.7974,565,2581.7974,577,2593.7974,565,2605.7974,105,2605.7974,93,2593.7974,105,2581.7974" style="stroke:#181818;stroke-width:0.5;"/><text fill="#000000" font-family="sans-serif" font-size="11" lengthAdjust="spacing" textLength="18" x="339" y="2616.0163">yes</text><text fill="#000000" font-family="sans-serif" font-size="11" lengthAdjust="spacing" textLength="460" x="105" y="2597.4163">index &lt; bestChromosomes.size() &amp;&amp; bestChromosomes.get(index).fitness() &lt; offspringFitness</text><text fill="#000000" font-family="sans-serif" font-size="11" lengthAdjust="spacing" textLength="12" x="81" y="2590.8164">no</text><rect fill="#F1F1F1" height="34.4001" style="stroke:#181818;stroke-width:0.5;" width="238" x="216" y="2713.9164"/><text fill="#000000" font-family="sans-serif" font-size="12" lengthAdjust="spacing" textLength="218" x="226" y="2735.0645">bestChromosomes.add(index, offspring)</text><polygon fill="#F1F1F1" points="323,2386.1974,347,2386.1974,359,2398.1974,347,2410.1974,323,2410.1974,311,2398.1974,323,2386.1974" style="stroke:#181818;stroke-width:0.5;"/><text fill="#000000" font-family="sans-serif" font-size="11" lengthAdjust="spacing" textLength="18" x="339" y="2420.4163">yes</text><text fill="#000000" font-family="sans-serif" font-size="11" lengthAdjust="spacing" textLength="18" x="326" y="2401.8163">add</text><text fill="#000000" font-family="sans-serif" font-size="11" lengthAdjust="spacing" textLength="12" x="359" y="2395.2164">no</text><polygon fill="#F1F1F1" points="335,2768.3165,347,2780.3165,335,2792.3165,323,2780.3165,335,2768.3165" style="stroke:#181818;stroke-width:0.5;"/><polygon fill="#F1F1F1" points="260.5,2008.0782,409.5,2008.0782,421.5,2020.0782,409.5,2032.0782,260.5,2032.0782,248.5,2020.0782,260.5,2008.0782" style="stroke:#181818;stroke-width:0.5;"/><text fill="#000000" font-family="sans-serif" font-size="11" lengthAdjust="spacing" textLength="18" x="339" y="2042.2972">yes</text><text fill="#000000" font-family="sans-serif" font-size="11" lengthAdjust="spacing" textLength="149" x="260.5" y="2023.6972">offspringFitness &gt; leastFitness</text><text fill="#000000" font-family="sans-serif" font-size="11" lengthAdjust="spacing" textLength="12" x="421.5" y="2017.0973">no</text><polygon fill="#F1F1F1" points="335,2812.3165,347,2824.3165,335,2836.3165,323,2824.3165,335,2812.3165" style="stroke:#181818;stroke-width:0.5;"/><polygon fill="#F1F1F1" points="323,827.4575,347,827.4575,359,839.4575,347,851.4575,323,851.4575,311,839.4575,323,827.4575" style="stroke:#181818;stroke-width:0.5;"/><text fill="#000000" font-family="sans-serif" font-size="11" lengthAdjust="spacing" textLength="18" x="339" y="861.6764">yes</text><text fill="#000000" font-family="sans-serif" font-size="11" lengthAdjust="spacing" textLength="19" x="325.5" y="843.0765">i != j</text><text fill="#000000" font-family="sans-serif" font-size="11" lengthAdjust="spacing" textLength="12" x="359" y="836.4765">no</text><polygon fill="#F1F1F1" points="335,2856.3165,347,2868.3165,335,2880.3165,323,2868.3165,335,2856.3165" style="stroke:#181818;stroke-width:0.5;"/><rect fill="#F1F1F1" height="34.4001" style="stroke:#181818;stroke-width:0.5;" width="37" x="316.5" y="2900.3165"/><text fill="#000000" font-family="sans-serif" font-size="12" lengthAdjust="spacing" textLength="17" x="326.5" y="2921.4646">j++</text><polygon fill="#F1F1F1" points="246,758.7386,424,758.7386,436,770.7386,424,782.7386,246,782.7386,234,770.7386,246,758.7386" style="stroke:#181818;stroke-width:0.5;"/><text fill="#000000" font-family="sans-serif" font-size="11" lengthAdjust="spacing" textLength="18" x="339" y="792.9575">yes</text><text fill="#000000" font-family="sans-serif" font-size="11" lengthAdjust="spacing" textLength="178" x="246" y="774.3576">j &lt; genetic.getChromosomes().size()</text><text fill="#000000" font-family="sans-serif" font-size="11" lengthAdjust="spacing" textLength="12" x="222" y="767.7576">no</text><rect fill="#F1F1F1" height="34.4001" style="stroke:#181818;stroke-width:0.5;" width="37" x="316.5" y="2976.7166"/><text fill="#000000" font-family="sans-serif" font-size="12" lengthAdjust="spacing" textLength="17" x="326.5" y="2997.8647">i++</text><polygon fill="#F1F1F1" points="246,648.6196,424,648.6196,436,660.6196,424,672.6196,246,672.6196,234,660.6196,246,648.6196" style="stroke:#181818;stroke-width:0.5;"/><text fill="#000000" font-family="sans-serif" font-size="11" lengthAdjust="spacing" textLength="18" x="339" y="682.8385">yes</text><text fill="#000000" font-family="sans-serif" font-size="11" lengthAdjust="spacing" textLength="178" x="246" y="664.2385">i &lt; genetic.getChromosomes().size()</text><text fill="#000000" font-family="sans-serif" font-size="11" lengthAdjust="spacing" textLength="12" x="222" y="657.6386">no</text><polygon fill="#F1F1F1" points="280,538.5005,390,538.5005,402,550.5005,390,562.5005,280,562.5005,268,550.5005,280,538.5005" style="stroke:#181818;stroke-width:0.5;"/><text fill="#000000" font-family="sans-serif" font-size="11" lengthAdjust="spacing" textLength="18" x="339" y="572.7195">yes</text><text fill="#000000" font-family="sans-serif" font-size="11" lengthAdjust="spacing" textLength="110" x="280" y="554.1195">totalOfGenerations &gt; 0</text><text fill="#000000" font-family="sans-serif" font-size="11" lengthAdjust="spacing" textLength="12" x="256" y="547.5196">no</text><ellipse cx="335" cy="3097.1167" fill="none" rx="10" ry="10" style="stroke:#222222;stroke-width:1.5;"/><line style="stroke:#222222;stroke-width:2.5;" x1="328.8128" x2="341.1872" y1="3090.9295" y2="3103.3039"/><line style="stroke:#222222;stroke-width:2.5;" x1="341.1872" x2="328.8128" y1="3090.9295" y2="3103.3039"/><line style="stroke:#181818;stroke-width:1.0;" x1="335" x2="335" y1="125.6001" y2="145.6001"/><polygon fill="#181818" points="331,135.6001,335,145.6001,339,135.6001,335,139.6001" style="stroke:#181818;stroke-width:1.0;"/><line style="stroke:#181818;stroke-width:1.0;" x1="335" x2="335" y1="180.0002" y2="200.0002"/><polygon fill="#181818" points="331,190.0002,335,200.0002,339,190.0002,335,194.0002" style="stroke:#181818;stroke-width:1.0;"/><line style="stroke:#181818;stroke-width:1.0;" x1="335" x2="335" y1="234.4003" y2="254.4003"/><polygon fill="#181818" points="331,244.4003,335,254.4003,339,244.4003,335,248.4003" style="stroke:#181818;stroke-width:1.0;"/><line style="stroke:#181818;stroke-width:1.0;" x1="335" x2="335" y1="391.8005" y2="420.1004"/><polygon fill="#181818" points="331,410.1004,335,420.1004,339,410.1004,335,414.1004" style="stroke:#181818;stroke-width:1.0;"/><line style="stroke:#181818;stroke-width:1.0;" x1="335" x2="335" y1="332.8004" y2="357.4004"/><polygon fill="#181818" points="331,347.4004,335,357.4004,339,347.4004,335,351.4004" style="stroke:#181818;stroke-width:1.0;"/><line style="stroke:#181818;stroke-width:1.0;" x1="398" x2="410" y1="320.8004" y2="320.8004"/><polygon fill="#181818" points="406,390.1004,410,400.1004,414,390.1004,410,394.1004" style="stroke:#181818;stroke-width:1.0;"/><line style="stroke:#181818;stroke-width:1.0;" x1="410" x2="410" y1="320.8004" y2="464.1004"/><line style="stroke:#181818;stroke-width:1.0;" x1="410" x2="335" y1="464.1004" y2="464.1004"/><line style="stroke:#181818;stroke-width:1.0;" x1="335" x2="335" y1="464.1004" y2="484.1004"/><polygon fill="#181818" points="331,474.1004,335,484.1004,339,474.1004,335,478.1004" style="stroke:#181818;stroke-width:1.0;"/><line style="stroke:#181818;stroke-width:1.0;" x1="335" x2="335" y1="288.8004" y2="308.8004"/><polygon fill="#181818" points="331,298.8004,335,308.8004,339,298.8004,335,302.8004" style="stroke:#181818;stroke-width:1.0;"/><line style="stroke:#181818;stroke-width:1.0;" x1="335" x2="335" y1="910.4576" y2="930.4576"/><polygon fill="#181818" points="331,920.4576,335,930.4576,339,920.4576,335,924.4576" style="stroke:#181818;stroke-width:1.0;"/><line style="stroke:#181818;stroke-width:1.0;" x1="335" x2="335" y1="964.8577" y2="984.8577"/><polygon fill="#181818" points="331,974.8577,335,984.8577,339,974.8577,335,978.8577" style="stroke:#181818;stroke-width:1.0;"/><line style="stroke:#181818;stroke-width:1.0;" x1="245.5" x2="245.5" y1="1107.6579" y2="1127.6579"/><polygon fill="#181818" points="241.5,1117.6579,245.5,1127.6579,249.5,1117.6579,245.5,1121.6579" style="stroke:#181818;stroke-width:1.0;"/><line style="stroke:#181818;stroke-width:1.0;" x1="285" x2="245.5" y1="1051.2578" y2="1051.2578"/><line style="stroke:#181818;stroke-width:1.0;" x1="245.5" x2="245.5" y1="1051.2578" y2="1073.2578"/><polygon fill="#181818" points="241.5,1063.2578,245.5,1073.2578,249.5,1063.2578,245.5,1067.2578" style="stroke:#181818;stroke-width:1.0;"/><line style="stroke:#181818;stroke-width:1.0;" x1="385" x2="424.5" y1="1051.2578" y2="1051.2578"/><line style="stroke:#181818;stroke-width:1.0;" x1="424.5" x2="424.5" y1="1051.2578" y2="1073.2578"/><polygon fill="#181818" points="420.5,1063.2578,424.5,1073.2578,428.5,1063.2578,424.5,1067.2578" style="stroke:#181818;stroke-width:1.0;"/><line style="stroke:#181818;stroke-width:1.0;" x1="424.5" x2="424.5" y1="1107.6579" y2="1133.6579"/><line style="stroke:#181818;stroke-width:1.0;" x1="424.5" x2="335" y1="1133.6579" y2="1133.6579"/><line style="stroke:#181818;stroke-width:1.0;" x1="335" x2="335" y1="1133.6579" y2="1150.6579"/><polygon fill="#181818" points="331,1140.6579,335,1150.6579,339,1140.6579,335,1144.6579" style="stroke:#181818;stroke-width:1.0;"/><line style="stroke:#181818;stroke-width:1.0;" x1="335" x2="335" y1="1019.2578" y2="1039.2578"/><polygon fill="#181818" points="331,1029.2578,335,1039.2578,339,1029.2578,335,1033.2578" style="stroke:#181818;stroke-width:1.0;"/><line style="stroke:#181818;stroke-width:1.0;" x1="335" x2="335" y1="1185.058" y2="1205.058"/><polygon fill="#181818" points="331,1195.058,335,1205.058,339,1195.058,335,1199.058" style="stroke:#181818;stroke-width:1.0;"/><line style="stroke:#181818;stroke-width:1.0;" x1="217.5" x2="194.25" y1="1271.4581" y2="1271.4581"/><line style="stroke:#181818;stroke-width:1.0;" x1="194.25" x2="194.25" y1="1271.4581" y2="1293.4581"/><polygon fill="#181818" points="190.25,1283.4581,194.25,1293.4581,198.25,1283.4581,194.25,1287.4581" style="stroke:#181818;stroke-width:1.0;"/><line style="stroke:#181818;stroke-width:1.0;" x1="452.5" x2="475.75" y1="1271.4581" y2="1271.4581"/><line style="stroke:#181818;stroke-width:1.0;" x1="475.75" x2="475.75" y1="1271.4581" y2="1293.4581"/><polygon fill="#181818" points="471.75,1283.4581,475.75,1293.4581,479.75,1283.4581,475.75,1287.4581" style="stroke:#181818;stroke-width:1.0;"/><line style="stroke:#181818;stroke-width:1.0;" x1="194.25" x2="194.25" y1="1327.8582" y2="1345.8582"/><line style="stroke:#181818;stroke-width:1.0;" x1="194.25" x2="323" y1="1345.8582" y2="1345.8582"/><polygon fill="#181818" points="313,1341.8582,323,1345.8582,313,1349.8582,317,1345.8582" style="stroke:#181818;stroke-width:1.0;"/><line style="stroke:#181818;stroke-width:1.0;" x1="475.75" x2="475.75" y1="1327.8582" y2="1345.8582"/><line style="stroke:#181818;stroke-width:1.0;" x1="475.75" x2="347" y1="1345.8582" y2="1345.8582"/><polygon fill="#181818" points="357,1341.8582,347,1345.8582,357,1349.8582,353,1345.8582" style="stroke:#181818;stroke-width:1.0;"/><line style="stroke:#181818;stroke-width:1.0;" x1="335" x2="335" y1="1239.4581" y2="1259.4581"/><polygon fill="#181818" points="331,1249.4581,335,1259.4581,339,1249.4581,335,1253.4581" style="stroke:#181818;stroke-width:1.0;"/><line style="stroke:#181818;stroke-width:1.0;" x1="335" x2="335" y1="1357.8582" y2="1377.8582"/><polygon fill="#181818" points="331,1367.8582,335,1377.8582,339,1367.8582,335,1371.8582" style="stroke:#181818;stroke-width:1.0;"/><line style="stroke:#181818;stroke-width:1.0;" x1="335" x2="335" y1="1412.2583" y2="1432.2583"/><polygon fill="#181818" points="331,1422.2583,335,1432.2583,339,1422.2583,335,1426.2583" style="stroke:#181818;stroke-width:1.0;"/><line style="stroke:#181818;stroke-width:1.0;" x1="335" x2="335" y1="1466.6584" y2="1486.6584"/><polygon fill="#181818" points="331,1476.6584,335,1486.6584,339,1476.6584,335,1480.6584" style="stroke:#181818;stroke-width:1.0;"/><line style="stroke:#181818;stroke-width:1.0;" x1="335" x2="335" y1="1521.0585" y2="1541.0585"/><polygon fill="#181818" points="331,1531.0585,335,1541.0585,339,1531.0585,335,1535.0585" style="stroke:#181818;stroke-width:1.0;"/><line style="stroke:#181818;stroke-width:1.0;" x1="335" x2="335" y1="1685.5776" y2="1705.5776"/><polygon fill="#181818" points="331,1695.5776,335,1705.5776,339,1695.5776,335,1699.5776" style="stroke:#181818;stroke-width:1.0;"/><line style="stroke:#181818;stroke-width:1.0;" x1="335" x2="335" y1="1852.6781" y2="1887.6781"/><polygon fill="#181818" points="331,1877.6781,335,1887.6781,339,1877.6781,335,1881.6781" style="stroke:#181818;stroke-width:1.0;"/><line style="stroke:#181818;stroke-width:1.0;" x1="335" x2="335" y1="1794.278" y2="1818.278"/><polygon fill="#181818" points="331,1808.278,335,1818.278,339,1808.278,335,1812.278" style="stroke:#181818;stroke-width:1.0;"/><line style="stroke:#181818;stroke-width:1.0;" x1="432.5" x2="449" y1="1782.278" y2="1782.278"/><polygon fill="#181818" points="445,1860.1781,449,1870.1781,453,1860.1781,449,1864.1781" style="stroke:#181818;stroke-width:1.0;"/><line style="stroke:#181818;stroke-width:1.0;" x1="449" x2="449" y1="1782.278" y2="1954.0782"/><line style="stroke:#181818;stroke-width:1.0;" x1="449" x2="347" y1="1954.0782" y2="1954.0782"/><polygon fill="#181818" points="357,1950.0782,347,1954.0782,357,1958.0782,353,1954.0782" style="stroke:#181818;stroke-width:1.0;"/><line style="stroke:#181818;stroke-width:1.0;" x1="335" x2="335" y1="1922.0782" y2="1942.0782"/><polygon fill="#181818" points="331,1932.0782,335,1942.0782,339,1932.0782,335,1936.0782" style="stroke:#181818;stroke-width:1.0;"/><line style="stroke:#181818;stroke-width:1.0;" x1="335" x2="335" y1="1739.9777" y2="1770.278"/><polygon fill="#181818" points="331,1760.278,335,1770.278,339,1760.278,335,1764.278" style="stroke:#181818;stroke-width:1.0;"/><line style="stroke:#181818;stroke-width:1.0;" x1="335" x2="335" y1="1619.4586" y2="1651.1775"/><polygon fill="#181818" points="331,1641.1775,335,1651.1775,339,1641.1775,335,1645.1775" style="stroke:#181818;stroke-width:1.0;"/><line style="stroke:#181818;stroke-width:1.0;" x1="335" x2="335" y1="1966.0782" y2="1976.0782"/><line style="stroke:#181818;stroke-width:1.0;" x1="335" x2="477" y1="1976.0782" y2="1976.0782"/><polygon fill="#181818" points="473,1792.1781,477,1782.1781,481,1792.1781,477,1788.1781" style="stroke:#181818;stroke-width:1.0;"/><line style="stroke:#181818;stroke-width:1.0;" x1="477" x2="477" y1="1607.4586" y2="1976.0782"/><line style="stroke:#181818;stroke-width:1.0;" x1="477" x2="438" y1="1607.4586" y2="1607.4586"/><polygon fill="#181818" points="448,1603.4586,438,1607.4586,448,1611.4586,444,1607.4586" style="stroke:#181818;stroke-width:1.0;"/><line style="stroke:#181818;stroke-width:1.0;" x1="232" x2="193" y1="1607.4586" y2="1607.4586"/><polygon fill="#181818" points="189,1778.1781,193,1788.1781,197,1778.1781,193,1782.1781" style="stroke:#181818;stroke-width:1.0;"/><line style="stroke:#181818;stroke-width:1.0;" x1="193" x2="193" y1="1607.4586" y2="1988.0782"/><line style="stroke:#181818;stroke-width:1.0;" x1="193" x2="335" y1="1988.0782" y2="1988.0782"/><line style="stroke:#181818;stroke-width:1.0;" x1="335" x2="335" y1="1988.0782" y2="2008.0782"/><polygon fill="#181818" points="331,1998.0782,335,2008.0782,339,1998.0782,335,2002.0782" style="stroke:#181818;stroke-width:1.0;"/><line style="stroke:#181818;stroke-width:1.0;" x1="335" x2="335" y1="1575.4586" y2="1595.4586"/><polygon fill="#181818" points="331,1585.4586,335,1595.4586,339,1585.4586,335,1589.4586" style="stroke:#181818;stroke-width:1.0;"/><line style="stroke:#181818;stroke-width:1.0;" x1="335" x2="335" y1="2091.0783" y2="2111.0783"/><polygon fill="#181818" points="331,2101.0783,335,2111.0783,339,2101.0783,335,2105.0783" style="stroke:#181818;stroke-width:1.0;"/><line style="stroke:#181818;stroke-width:1.0;" x1="335" x2="335" y1="2304.1974" y2="2318.1974"/><line style="stroke:#181818;stroke-width:1.0;" x1="335" x2="206" y1="2318.1974" y2="2318.1974"/><polygon fill="#181818" points="216,2314.1974,206,2318.1974,216,2322.1974,212,2318.1974" style="stroke:#181818;stroke-width:1.0;"/><line style="stroke:#181818;stroke-width:1.0;" x1="335" x2="335" y1="2245.1973" y2="2269.7973"/><polygon fill="#181818" points="331,2259.7973,335,2269.7973,339,2259.7973,335,2263.7973" style="stroke:#181818;stroke-width:1.0;"/><line style="stroke:#181818;stroke-width:1.0;" x1="452" x2="476" y1="2233.1973" y2="2233.1973"/><line style="stroke:#181818;stroke-width:1.0;" x1="476" x2="476" y1="2177.4784" y2="2233.1973"/><line style="stroke:#181818;stroke-width:1.0;" x1="476" x2="432.5" y1="2177.4784" y2="2177.4784"/><polygon fill="#181818" points="442.5,2173.4784,432.5,2177.4784,442.5,2181.4784,438.5,2177.4784" style="stroke:#181818;stroke-width:1.0;"/><line style="stroke:#181818;stroke-width:1.0;" x1="335" x2="335" y1="2189.4784" y2="2221.1973"/><polygon fill="#181818" points="331,2211.1973,335,2221.1973,339,2211.1973,335,2215.1973" style="stroke:#181818;stroke-width:1.0;"/><line style="stroke:#181818;stroke-width:1.0;" x1="237.5" x2="206" y1="2177.4784" y2="2177.4784"/><polygon fill="#181818" points="202,2272.8974,206,2282.8974,210,2272.8974,206,2276.8974" style="stroke:#181818;stroke-width:1.0;"/><line style="stroke:#181818;stroke-width:1.0;" x1="206" x2="206" y1="2177.4784" y2="2366.1974"/><line style="stroke:#181818;stroke-width:1.0;" x1="206" x2="335" y1="2366.1974" y2="2366.1974"/><line style="stroke:#181818;stroke-width:1.0;" x1="335" x2="335" y1="2366.1974" y2="2386.1974"/><polygon fill="#181818" points="331,2376.1974,335,2386.1974,339,2376.1974,335,2380.1974" style="stroke:#181818;stroke-width:1.0;"/><line style="stroke:#181818;stroke-width:1.0;" x1="335" x2="335" y1="2145.4784" y2="2165.4784"/><polygon fill="#181818" points="331,2155.4784,335,2165.4784,339,2155.4784,335,2159.4784" style="stroke:#181818;stroke-width:1.0;"/><line style="stroke:#181818;stroke-width:1.0;" x1="335" x2="335" y1="2458.7973" y2="2483.3973"/><polygon fill="#181818" points="331,2473.3973,335,2483.3973,339,2473.3973,335,2477.3973" style="stroke:#181818;stroke-width:1.0;"/><line style="stroke:#181818;stroke-width:1.0;" x1="421" x2="436" y1="2446.7973" y2="2446.7973"/><polygon fill="#181818" points="432,2490.5973,436,2500.5973,440,2490.5973,436,2494.5973" style="stroke:#181818;stroke-width:1.0;"/><line style="stroke:#181818;stroke-width:1.0;" x1="436" x2="436" y1="2446.7973" y2="2549.7974"/><line style="stroke:#181818;stroke-width:1.0;" x1="436" x2="347" y1="2549.7974" y2="2549.7974"/><polygon fill="#181818" points="357,2545.7974,347,2549.7974,357,2553.7974,353,2549.7974" style="stroke:#181818;stroke-width:1.0;"/><line style="stroke:#181818;stroke-width:1.0;" x1="335" x2="335" y1="2517.7974" y2="2537.7974"/><polygon fill="#181818" points="331,2527.7974,335,2537.7974,339,2527.7974,335,2531.7974" style="stroke:#181818;stroke-width:1.0;"/><line style="stroke:#181818;stroke-width:1.0;" x1="335" x2="335" y1="2605.7974" y2="2637.5163"/><polygon fill="#181818" points="331,2627.5163,335,2637.5163,339,2627.5163,335,2631.5163" style="stroke:#181818;stroke-width:1.0;"/><line style="stroke:#181818;stroke-width:1.0;" x1="335" x2="335" y1="2671.9164" y2="2681.9164"/><line style="stroke:#181818;stroke-width:1.0;" x1="335" x2="589" y1="2681.9164" y2="2681.9164"/><polygon fill="#181818" points="585,2646.1164,589,2636.1164,593,2646.1164,589,2642.1164" style="stroke:#181818;stroke-width:1.0;"/><line style="stroke:#181818;stroke-width:1.0;" x1="589" x2="589" y1="2593.7974" y2="2681.9164"/><line style="stroke:#181818;stroke-width:1.0;" x1="589" x2="577" y1="2593.7974" y2="2593.7974"/><polygon fill="#181818" points="587,2589.7974,577,2593.7974,587,2597.7974,583,2593.7974" style="stroke:#181818;stroke-width:1.0;"/><line style="stroke:#181818;stroke-width:1.0;" x1="93" x2="81" y1="2593.7974" y2="2593.7974"/><polygon fill="#181818" points="77,2632.1164,81,2642.1164,85,2632.1164,81,2636.1164" style="stroke:#181818;stroke-width:1.0;"/><line style="stroke:#181818;stroke-width:1.0;" x1="81" x2="81" y1="2593.7974" y2="2693.9164"/><line style="stroke:#181818;stroke-width:1.0;" x1="81" x2="335" y1="2693.9164" y2="2693.9164"/><line style="stroke:#181818;stroke-width:1.0;" x1="335" x2="335" y1="2693.9164" y2="2713.9164"/><polygon fill="#181818" points="331,2703.9164,335,2713.9164,339,2703.9164,335,2707.9164" style="stroke:#181818;stroke-width:1.0;"/><line style="stroke:#181818;stroke-width:1.0;" x1="335" x2="335" y1="2561.7974" y2="2581.7974"/><polygon fill="#181818" points="331,2571.7974,335,2581.7974,339,2571.7974,335,2575.7974" style="stroke:#181818;stroke-width:1.0;"/><line style="stroke:#181818;stroke-width:1.0;" x1="335" x2="335" y1="2410.1974" y2="2434.7973"/><polygon fill="#181818" points="331,2424.7973,335,2434.7973,339,2424.7973,335,2428.7973" style="stroke:#181818;stroke-width:1.0;"/><line style="stroke:#181818;stroke-width:1.0;" x1="359" x2="599" y1="2398.1974" y2="2398.1974"/><polygon fill="#181818" points="595,2582.9974,599,2592.9974,603,2582.9974,599,2586.9974" style="stroke:#181818;stroke-width:1.0;"/><line style="stroke:#181818;stroke-width:1.0;" x1="599" x2="599" y1="2398.1974" y2="2780.3165"/><line style="stroke:#181818;stroke-width:1.0;" x1="599" x2="347" y1="2780.3165" y2="2780.3165"/><polygon fill="#181818" points="357,2776.3165,347,2780.3165,357,2784.3165,353,2780.3165" style="stroke:#181818;stroke-width:1.0;"/><line style="stroke:#181818;stroke-width:1.0;" x1="335" x2="335" y1="2748.3165" y2="2768.3165"/><polygon fill="#181818" points="331,2758.3165,335,2768.3165,339,2758.3165,335,2762.3165" style="stroke:#181818;stroke-width:1.0;"/><line style="stroke:#181818;stroke-width:1.0;" x1="335" x2="335" y1="2032.0782" y2="2056.6782"/><polygon fill="#181818" points="331,2046.6782,335,2056.6782,339,2046.6782,335,2050.6782" style="stroke:#181818;stroke-width:1.0;"/><line style="stroke:#181818;stroke-width:1.0;" x1="421.5" x2="621" y1="2020.0782" y2="2020.0782"/><polygon fill="#181818" points="617,2398.7973,621,2408.7973,625,2398.7973,621,2402.7973" style="stroke:#181818;stroke-width:1.0;"/><line style="stroke:#181818;stroke-width:1.0;" x1="621" x2="621" y1="2020.0782" y2="2824.3165"/><line style="stroke:#181818;stroke-width:1.0;" x1="621" x2="347" y1="2824.3165" y2="2824.3165"/><polygon fill="#181818" points="357,2820.3165,347,2824.3165,357,2828.3165,353,2824.3165" style="stroke:#181818;stroke-width:1.0;"/><line style="stroke:#181818;stroke-width:1.0;" x1="335" x2="335" y1="2792.3165" y2="2812.3165"/><polygon fill="#181818" points="331,2802.3165,335,2812.3165,339,2802.3165,335,2806.3165" style="stroke:#181818;stroke-width:1.0;"/><line style="stroke:#181818;stroke-width:1.0;" x1="335" x2="335" y1="851.4575" y2="876.0575"/><polygon fill="#181818" points="331,866.0575,335,876.0575,339,866.0575,335,870.0575" style="stroke:#181818;stroke-width:1.0;"/><line style="stroke:#181818;stroke-width:1.0;" x1="359" x2="667.75" y1="839.4575" y2="839.4575"/><polygon fill="#181818" points="663.75,1817.2775,667.75,1827.2775,671.75,1817.2775,667.75,1821.2775" style="stroke:#181818;stroke-width:1.0;"/><line style="stroke:#181818;stroke-width:1.0;" x1="667.75" x2="667.75" y1="839.4575" y2="2868.3165"/><line style="stroke:#181818;stroke-width:1.0;" x1="667.75" x2="347" y1="2868.3165" y2="2868.3165"/><polygon fill="#181818" points="357,2864.3165,347,2868.3165,357,2872.3165,353,2868.3165" style="stroke:#181818;stroke-width:1.0;"/><line style="stroke:#181818;stroke-width:1.0;" x1="335" x2="335" y1="2836.3165" y2="2856.3165"/><polygon fill="#181818" points="331,2846.3165,335,2856.3165,339,2846.3165,335,2850.3165" style="stroke:#181818;stroke-width:1.0;"/><line style="stroke:#181818;stroke-width:1.0;" x1="335" x2="335" y1="782.7386" y2="827.4575"/><polygon fill="#181818" points="331,817.4575,335,827.4575,339,817.4575,335,821.4575" style="stroke:#181818;stroke-width:1.0;"/><line style="stroke:#181818;stroke-width:1.0;" x1="335" x2="335" y1="2880.3165" y2="2900.3165"/><polygon fill="#181818" points="331,2890.3165,335,2900.3165,339,2890.3165,335,2894.3165" style="stroke:#181818;stroke-width:1.0;"/><line style="stroke:#181818;stroke-width:1.0;" x1="335" x2="335" y1="2934.7166" y2="2944.7166"/><line style="stroke:#181818;stroke-width:1.0;" x1="335" x2="685.75" y1="2944.7166" y2="2944.7166"/><polygon fill="#181818" points="681.75,1835.8776,685.75,1825.8776,689.75,1835.8776,685.75,1831.8776" style="stroke:#181818;stroke-width:1.0;"/><line style="stroke:#181818;stroke-width:1.0;" x1="685.75" x2="685.75" y1="770.7386" y2="2944.7166"/><line style="stroke:#181818;stroke-width:1.0;" x1="685.75" x2="436" y1="770.7386" y2="770.7386"/><polygon fill="#181818" points="446,766.7386,436,770.7386,446,774.7386,442,770.7386" style="stroke:#181818;stroke-width:1.0;"/><line style="stroke:#181818;stroke-width:1.0;" x1="234" x2="63" y1="770.7386" y2="770.7386"/><polygon fill="#181818" points="59,1821.8776,63,1831.8776,67,1821.8776,63,1825.8776" style="stroke:#181818;stroke-width:1.0;"/><line style="stroke:#181818;stroke-width:1.0;" x1="63" x2="63" y1="770.7386" y2="2956.7166"/><line style="stroke:#181818;stroke-width:1.0;" x1="63" x2="335" y1="2956.7166" y2="2956.7166"/><line style="stroke:#181818;stroke-width:1.0;" x1="335" x2="335" y1="2956.7166" y2="2976.7166"/><polygon fill="#181818" points="331,2966.7166,335,2976.7166,339,2966.7166,335,2970.7166" style="stroke:#181818;stroke-width:1.0;"/><line style="stroke:#181818;stroke-width:1.0;" x1="335" x2="335" y1="738.7386" y2="758.7386"/><polygon fill="#181818" points="331,748.7386,335,758.7386,339,748.7386,335,752.7386" style="stroke:#181818;stroke-width:1.0;"/><line style="stroke:#181818;stroke-width:1.0;" x1="335" x2="335" y1="672.6196" y2="704.3385"/><polygon fill="#181818" points="331,694.3385,335,704.3385,339,694.3385,335,698.3385" style="stroke:#181818;stroke-width:1.0;"/><line style="stroke:#181818;stroke-width:1.0;" x1="335" x2="335" y1="3011.1167" y2="3021.1167"/><line style="stroke:#181818;stroke-width:1.0;" x1="335" x2="697.75" y1="3021.1167" y2="3021.1167"/><polygon fill="#181818" points="693.75,1817.2777,697.75,1807.2777,701.75,1817.2777,697.75,1813.2777" style="stroke:#181818;stroke-width:1.0;"/><line style="stroke:#181818;stroke-width:1.0;" x1="697.75" x2="697.75" y1="660.6196" y2="3021.1167"/><line style="stroke:#181818;stroke-width:1.0;" x1="697.75" x2="436" y1="660.6196" y2="660.6196"/><polygon fill="#181818" points="446,656.6196,436,660.6196,446,664.6196,442,660.6196" style="stroke:#181818;stroke-width:1.0;"/><line style="stroke:#181818;stroke-width:1.0;" x1="234" x2="45" y1="660.6196" y2="660.6196"/><polygon fill="#181818" points="41,1803.2777,45,1813.2777,49,1803.2777,45,1807.2777" style="stroke:#181818;stroke-width:1.0;"/><line style="stroke:#181818;stroke-width:1.0;" x1="45" x2="45" y1="660.6196" y2="3033.1167"/><line style="stroke:#181818;stroke-width:1.0;" x1="45" x2="706.75" y1="3033.1167" y2="3033.1167"/><line style="stroke:#181818;stroke-width:1.0;" x1="706.75" x2="706.75" y1="550.5005" y2="3033.1167"/><line style="stroke:#181818;stroke-width:1.0;" x1="706.75" x2="402" y1="550.5005" y2="550.5005"/><polygon fill="#181818" points="412,546.5005,402,550.5005,412,554.5005,408,550.5005" style="stroke:#181818;stroke-width:1.0;"/><line style="stroke:#181818;stroke-width:1.0;" x1="335" x2="335" y1="628.6196" y2="648.6196"/><polygon fill="#181818" points="331,638.6196,335,648.6196,339,638.6196,335,642.6196" style="stroke:#181818;stroke-width:1.0;"/><line style="stroke:#181818;stroke-width:1.0;" x1="335" x2="335" y1="562.5005" y2="594.2195"/><polygon fill="#181818" points="331,584.2195,335,594.2195,339,584.2195,335,588.2195" style="stroke:#181818;stroke-width:1.0;"/><line style="stroke:#181818;stroke-width:1.0;" x1="268" x2="27" y1="550.5005" y2="550.5005"/><polygon fill="#181818" points="23,1749.9777,27,1759.9777,31,1749.9777,27,1753.9777" style="stroke:#181818;stroke-width:1.0;"/><line style="stroke:#181818;stroke-width:1.0;" x1="27" x2="27" y1="550.5005" y2="3055.1167"/><line style="stroke:#181818;stroke-width:1.0;" x1="27" x2="335" y1="3055.1167" y2="3055.1167"/><line style="stroke:#181818;stroke-width:1.0;" x1="335" x2="335" y1="3055.1167" y2="3087.1167"/><polygon fill="#181818" points="331,3077.1167,335,3087.1167,339,3077.1167,335,3081.1167" style="stroke:#181818;stroke-width:1.0;"/><line style="stroke:#181818;stroke-width:1.0;" x1="335" x2="335" y1="518.5005" y2="538.5005"/><polygon fill="#181818" points="331,528.5005,335,538.5005,339,528.5005,335,532.5005" style="stroke:#181818;stroke-width:1.0;"/><line style="stroke:#181818;stroke-width:1.0;" x1="335" x2="335" y1="30" y2="76.7999"/><polygon fill="#181818" points="331,66.7999,335,76.7999,339,66.7999,335,70.7999" style="stroke:#181818;stroke-width:1.0;"/><!--SRC=[jLXDZnit4htFh-1U4icHPIVON0oF0IEPBBBm5-pD8fU1GNLJ6ivqaxqaUp9oi3_6Hn_c4EIMg_xOlk9Ni_KncdLsVHXBtMIngjwhnofPnuqxEUdmLpgf5NlmODchYZu-UC1Ch_ucb72oOh-UCFnxiWfV_PUbRCGhtef79-4TZ5XHVyyTPwUiqTn_dD0gXLNJyvEHYNdVrTo9oR0hhn36Q0CRQMLb15P-Ts5qgwrkXPsafNB99c7rNqxPgzVlpzw-VVrsojo5K6oo5dRgLtcZHhZUAEPNFygFhTET_o8QAzX4wR13g5ekepTEEzwyNb8Y3AV4sCArbN3_s7cVtVlb0i6poHuBpzZZAPDssqa9qu_Fy_UuNxAdvO6ZHCoj_20cqpt6lC7BiS72wELd6wL_3L-8XbLQEQbwyRxHCOtbFm974Z2NUn4P-GaM2EM-BZ9hHICy3oToUdxNfc_sRhfC6EpiqikbxOnKgn73jBNwMfX9T6J6el53PYYumj8fKttJ78tp0A4UFZm_k7obdJwIw5t-xZsNrpKRN8RLuSkYNow5sUz4KGk7S_c3T4fOgepqoCsNuTda47nvvSlUeRxh0e-MdX2C-G32uIWGoT9mD0fjsyVxWLIoPDly-USYOELAyGRdSqTEi3O6NkNYeuhxHKCHQP7oYxIHAubj_rDqLYKw-tStWbk7dJ-gMjpioiZEkk6G7vKJAs7cBv___FwVpr_yT7ReYAl3PgDANVqfbSe75Ga-tMzlSZKzly_-8ShXsJ6c9vhkMddAKlO6PXuqCShsZXFnsVdzjYTGhmwlFyxdmBq3RoA0jF-uWAQ0dkt9np5i3z1Z52cu8jppfi7rO8TJQKjwEBqBVbBEK-PCBmumkM1iMSkABOGjlRe7LtV9KgZPwTuAlbUUje9PSi1xVdJr0gtNrPshZjFaRghSaoufBV3-tk7I-Yq0ecQmPwVis_ykRTk6Z6ZHC4mUJy__x-afMq5Vjq_PWR2- -6Bd3JWUTaqB7ZtTSolUYvcXIoLpNtrrVYoa-s2wDxS0EVWyOsK3y6ULwZEkxGCR3s_QZ-IJo-rqZTCpJc-vTdVT-Cc_JqxmuEJaqPViJ35agXM6DVsAcnc3ZxLOIYLOhpYh6eu7JSDRNdEMvhf_zI9qb_YEeSsoTlF9wHeVrkpBHsJscXl95z18faGbBBxX9RfZpiIbgD316AI3yMQ5HiMrcgvNc92LdiC0yvwzu8ocIhdvtRk8JntQ85WS1ioPzyI8IYx8NQONbm8jQd9pJS-KRg57Y2bwnarr8Q-fEyQny6ZpiHKEdVoSdLbN75bni-8-E4oSz9VyZNlN5FrIhdh44wms8Rna32ekAyaf_df_dBFW05uwv7RpcoOFcsIkquk6Upzcj4Hj_W12claXW1PsHY-5rKPGnglUM6rd-BHlQJ2uydD3XUuObS9Uz6853o8K1v1WqlbHunfpE7epLYDQ-X-hWyrqbB0T45ZAYjS-Yl5PM4kBlyFiXvT8CHBhOKEm5GpAcjU3j-NU22vlv0Vl8u9U6IIBE10y00ASV0VT6eppb9YSE2PkdE6Rs-1JHVHDyFtztUjNsR7l4PpH7gP5NpMYuDf1wEpW5wBmy-C0Ld2jCdqbPlIQ-lNWqPg-2lZQnmS1SjuvwVewb8Tt59-yqr7SU8etdgGLCaqmbcUNJhMYbWchM9eiJxcXQ4GZLuaSg99y534RTWXIL1AdTvjRo5FbqQDH1BOw8wvbf0KkGyHGvBqaN9FJVDQ4b1npCm_LmKtPTesWWpm3WeLCQXAS8aUzasHMrRwiT8VpQnqJ6VTrlGgr71-ryeQ-Jzwy_7awZrPVK2blhSkYgA9kj3TljAJV7jRvypVuR4M1aSgehJP_X2mPtMcJi6y6sgSI9llSUiO6aEBv1h9cl2H7cq2eRnnX8HK89Ul0oZZo1nIn6u3rqiEqGwcC3CNRQjHvKkXuyWuYfHUxvuSSBRBCUZE-FYuqZEBi2ru9CyIa0DEDj2vSD2qdlj2oo0xJm2IQOJ9ZarLKPWz6SCgc9IUSaLLKYuw-qfrJGLBIPUDLO-svlFPxQfm8i799aGcCqol9FTnuBI36GtBA-Zr2tVJxWrU1oYjJrq0LGtpPIimFHWraK_9GOncNETt8Wh92HDWI47yLGq0OwSH2xwW2KH_6O1l9IoS4RGCXBedKwMQYOFqw4E4TqYpQ1Iuy79XiHkVLTfOfhMWKIBa_34fU-iZPzUOZAC6HybPSufOQBhQaTTwb8UOa4jRjm6fr03jJsJu95nR5g1TEA28VoDJr0Z4vqXsVyNX9eSJIFS4UViqcsEMnaIHgcUpfGXqCrTIYs5YQqzpOuBRkT9KMGMFeGEArXp6R8RDhJjwWYU1HDotxQwpqUGmr5tCHC1ekQYm2yvMlAt5JYTgpkTdSjjA9GJEWl6OuTkqtfSWzYYi3SwGhOJdArOEZ1m5u9uU4bZSCyxNcHMMttBpSIBewQofceSghBzqbHWYgrg39l0a-96rgfMrrRCzoIq89vqtLDtom5oSGf9xuc-fwE2NzrfLRkgttdKOveGvCaADWD1Csf-4Dz_e3zP06R2DNMfvwt9BXv7HKszQVLjpXL5NjGjljLFWg6xj51f6MS00HDjcmVHVTBPS7WodMfFPMc6i-Sc-EZeOruTTVGtrtREaj-Yx7jnkINEqvrBsfBVKmTyWKQtHPPv0IUYY6q9If7lfeg9yCxHp9jB_FCnGLtH_Sv-uk9IoeOVlMKmgo2ruIDwdCxQY51ZWBk9vTJONtKtAivMlyZJ8mQe6yQCstOnqB67HW8JUVl2R7nYCMmT0nrb9X8A3G0obLnCI3G6UazEkcZ_tZcXTbdwWHvXhgN7rVjhbTaatVaA2GYqxMTltcKqh3VVjEdrbUkJutj3lDtAYEct7NXUOC3s2B7fDI-Bx9LZJJUhcEHBU-flgjDD9hmc7EdjUYtNmCkfB9I6NHI9hBwZ1eVXjl5BlR74ymGmiJZgIU7ct3vdOQ-zCqZsx_qZ4BqE1R08PweNZ0TWN7bhRscZjI53z73LrT9a16vWUg8TykpyOjejT1puI1VG6S0WFVLc8_sYVbIHP7pYAgq8v1OuOEnK_lGQ3s3Hjf9jeMc2ZEmsFgSdoewp5Fi2YS6hKIxEufxLkrD5ZT9t73pHzQIkJ8jpn3LvR7BbxC0dMeDTA6tDxb8apNnku0W2v_jjMC3MtOaU4ipkM-ZgzzlGA-q6WKK8s7jlM-ai_5Jl8UhHfO405wZVDQn37SJVy1]--></g></svg>