<?xml version="1.0" encoding="us-ascii" standalone="no"?><svg xmlns="http://www.w3.org/2000/svg" xmlns:xlink="http://www.w3.org/1999/xlink" contentStyleType="text/css" height="388px" preserveAspectRatio="none" style="width:290px;height:388px;background:#FFFFFF;" version="1.1" viewBox="0 0 290 388" width="290px" zoomAndPan="magnify"><defs/><g><!--class Measurement--><g id="elem_Measurement"><rect codeLine="1" fill="#F1F1F1" height="367.1986" id="Measurement" rx="2.5" ry="2.5" style="stroke:#181818;stroke-width:0.5;" width="269" x="7" y="7"/><ellipse cx="93.25" cy="23" fill="#ADD1B2" rx="11" ry="11" style="stroke:#181818;stroke-width:1.0;"/><path d="M88.25,24.1563 C88.25,26.6563 90.3906,28.4688 93.3125,28.4688 C94.5469,28.4688 95.7188,28.1719 96.4688,27.6563 C97.0781,27.2344 97.4063,26.8125 97.4063,26.4063 C97.4063,25.9375 96.9844,25.5313 96.4844,25.5313 C96.25,25.5313 96.0313,25.6094 95.8281,25.8125 C95.3906,26.25 95.3906,26.25 95.2188,26.3438 C94.7656,26.5781 94.125,26.7188 93.3594,26.7188 C91.3594,26.7188 90.0781,25.7031 90.0781,24.125 L90.0781,23.0781 C90.0781,21.375 91.2969,20.1719 93,20.1719 C93.5781,20.1719 94.1563,20.3125 94.625,20.5625 C95.0938,20.8281 95.2656,21.0156 95.3281,21.375 C95.4531,22.0469 95.7031,22.2969 96.2344,22.2969 C96.5156,22.2969 96.7969,22.1563 96.9844,21.9375 C97.1094,21.7656 97.1563,21.5938 97.1563,21.1563 L97.1563,19.7969 C97.1563,19.375 97.1406,19.2344 97.0156,19.0625 C96.8438,18.8125 96.5625,18.6563 96.2344,18.6563 C95.9219,18.6563 95.7188,18.7656 95.5,19.0313 C94.3281,18.5313 93.8906,18.4219 92.9375,18.4219 C90.2656,18.4219 88.25,20.4375 88.25,23.0625 L88.25,24.1563 Z " fill="#000000"/><text fill="#000000" font-family="sans-serif" font-size="14" lengthAdjust="spacing" textLength="88" x="113.75" y="27.606">Measurement</text><line style="stroke:#181818;stroke-width:0.5;" x1="8" x2="275" y1="39" y2="39"/><rect fill="none" height="6" style="stroke:#C82930;stroke-width:1.0;" width="6" x="15" y="49.9"/><text fill="#000000" font-family="sans-serif" font-size="14" lengthAdjust="spacing" textLength="112" x="27" y="56.0059">currentTime: long</text><rect fill="none" height="6" style="stroke:#C82930;stroke-width:1.0;" width="6" x="15" y="66.6999"/><text fill="#000000" font-family="sans-serif" font-size="14" lengthAdjust="spacing" textLength="48" x="27" y="72.8059">size: int</text><rect fill="none" height="6" style="stroke:#C82930;stroke-width:1.0;" width="6" x="15" y="83.4998"/><text fill="#000000" font-family="sans-serif" font-size="14" lengthAdjust="spacing" textLength="103" x="27" y="89.6058">assignments: int</text><rect fill="none" height="6" style="stroke:#C82930;stroke-width:1.0;" width="6" x="15" y="100.2997"/><text fill="#000000" font-family="sans-serif" font-size="14" lengthAdjust="spacing" textLength="104" x="27" y="106.4057">comparisons: int</text><rect fill="none" height="6" style="stroke:#C82930;stroke-width:1.0;" width="6" x="15" y="117.0997"/><text fill="#000000" font-family="sans-serif" font-size="14" lengthAdjust="spacing" textLength="116" x="27" y="123.2057">memoryUsage: int</text><line style="stroke:#181818;stroke-width:0.5;" x1="8" x2="275" y1="130.9996" y2="130.9996"/><ellipse cx="18" cy="144.8996" fill="#84BE84" rx="3" ry="3" style="stroke:#038048;stroke-width:1.0;"/><text fill="#000000" font-family="sans-serif" font-size="14" lengthAdjust="spacing" textLength="76" x="27" y="148.0056">reset(): void</text><ellipse cx="18" cy="161.6995" fill="#84BE84" rx="3" ry="3" style="stroke:#038048;stroke-width:1.0;"/><text fill="#000000" font-family="sans-serif" font-size="14" lengthAdjust="spacing" textLength="111" x="27" y="164.8055">beginTime(): void</text><ellipse cx="18" cy="178.4995" fill="#84BE84" rx="3" ry="3" style="stroke:#038048;stroke-width:1.0;"/><text fill="#000000" font-family="sans-serif" font-size="14" lengthAdjust="spacing" textLength="100" x="27" y="181.6054">endTime(): void</text><ellipse cx="18" cy="195.2994" fill="#84BE84" rx="3" ry="3" style="stroke:#038048;stroke-width:1.0;"/><text fill="#000000" font-family="sans-serif" font-size="14" lengthAdjust="spacing" textLength="138" x="27" y="198.4054">setSize(size: int): void</text><ellipse cx="18" cy="212.0993" fill="#84BE84" rx="3" ry="3" style="stroke:#038048;stroke-width:1.0;"/><text fill="#000000" font-family="sans-serif" font-size="14" lengthAdjust="spacing" textLength="219" x="27" y="215.2053">incrementAssignments(n: int): void</text><ellipse cx="18" cy="228.8992" fill="#84BE84" rx="3" ry="3" style="stroke:#038048;stroke-width:1.0;"/><text fill="#000000" font-family="sans-serif" font-size="14" lengthAdjust="spacing" textLength="222" x="27" y="232.0052">incrementComparisons(n: int): void</text><ellipse cx="18" cy="245.6992" fill="#84BE84" rx="3" ry="3" style="stroke:#038048;stroke-width:1.0;"/><text fill="#000000" font-family="sans-serif" font-size="14" lengthAdjust="spacing" textLength="231" x="27" y="248.8051">incrementMemoryUsage(n: int): void</text><ellipse cx="18" cy="262.4991" fill="#84BE84" rx="3" ry="3" style="stroke:#038048;stroke-width:1.0;"/><text fill="#000000" font-family="sans-serif" font-size="14" lengthAdjust="spacing" textLength="243" x="27" y="265.6051">incrementMemoryUsage(n: long): void</text><ellipse cx="18" cy="279.299" fill="#84BE84" rx="3" ry="3" style="stroke:#038048;stroke-width:1.0;"/><text fill="#000000" font-family="sans-serif" font-size="14" lengthAdjust="spacing" textLength="80" x="27" y="282.405">getSize(): int</text><ellipse cx="18" cy="296.0989" fill="#84BE84" rx="3" ry="3" style="stroke:#038048;stroke-width:1.0;"/><text fill="#000000" font-family="sans-serif" font-size="14" lengthAdjust="spacing" textLength="134" x="27" y="299.2049">getAssignments(): int</text><ellipse cx="18" cy="312.8989" fill="#84BE84" rx="3" ry="3" style="stroke:#038048;stroke-width:1.0;"/><text fill="#000000" font-family="sans-serif" font-size="14" lengthAdjust="spacing" textLength="137" x="27" y="316.0048">getComparisons(): int</text><ellipse cx="18" cy="329.6988" fill="#84BE84" rx="3" ry="3" style="stroke:#038048;stroke-width:1.0;"/><text fill="#000000" font-family="sans-serif" font-size="14" lengthAdjust="spacing" textLength="173" x="27" y="332.8048">getTotalOfInstructions(): int</text><ellipse cx="18" cy="346.4987" fill="#84BE84" rx="3" ry="3" style="stroke:#038048;stroke-width:1.0;"/><text fill="#000000" font-family="sans-serif" font-size="14" lengthAdjust="spacing" textLength="146" x="27" y="349.6047">getMemoryUsage(): int</text><ellipse cx="18" cy="363.2986" fill="#84BE84" rx="3" ry="3" style="stroke:#038048;stroke-width:1.0;"/><text fill="#000000" font-family="sans-serif" font-size="14" lengthAdjust="spacing" textLength="163" x="27" y="366.4046">getMeasurement(): String</text></g><!--SRC=[bP512i8m44NtdYBB5l42xiILY-AYzG0n7SD0Cv5CAgXuTzDOszIYu7BU_v_ycQX6Cei29BSE390NzuKGAw5Qvy9KeO6rQ2pfI1blOKJoSGf9rDI5U8JAchDqo9OIQC1OTpsmr7qyqALmmE2pV2qk5kj8Zg2HkZSd5AYUiP0iGvbiQ9IAIEgrp6PicD5tstRi_CjMZ5lyOUkEb_fqtpn_doUYjEbKISjDbSfwsUnFEsBlMkLnxaYhV2h3ZtTAwHs6Ftuy0G00]--></g></svg>