<?xml version="1.0" encoding="us-ascii" standalone="no"?><svg xmlns="http://www.w3.org/2000/svg" xmlns:xlink="http://www.w3.org/1999/xlink" contentStyleType="text/css" height="136px" preserveAspectRatio="none" style="width:201px;height:136px;background:#FFFFFF;" version="1.1" viewBox="0 0 201 136" width="201px" zoomAndPan="magnify"><defs/><g><!--class ParsedData--><g id="elem_ParsedData"><rect codeLine="1" fill="#F1F1F1" height="115.1997" id="ParsedData" rx="2.5" ry="2.5" style="stroke:#181818;stroke-width:0.5;" width="180" x="7" y="7"/><ellipse cx="55.25" cy="23" fill="#ADD1B2" rx="11" ry="11" style="stroke:#181818;stroke-width:1.0;"/><path d="M50.25,24.1563 C50.25,26.6563 52.3906,28.4688 55.3125,28.4688 C56.5469,28.4688 57.7188,28.1719 58.4688,27.6563 C59.0781,27.2344 59.4063,26.8125 59.4063,26.4063 C59.4063,25.9375 58.9844,25.5313 58.4844,25.5313 C58.25,25.5313 58.0313,25.6094 57.8281,25.8125 C57.3906,26.25 57.3906,26.25 57.2188,26.3438 C56.7656,26.5781 56.125,26.7188 55.3594,26.7188 C53.3594,26.7188 52.0781,25.7031 52.0781,24.125 L52.0781,23.0781 C52.0781,21.375 53.2969,20.1719 55,20.1719 C55.5781,20.1719 56.1563,20.3125 56.625,20.5625 C57.0938,20.8281 57.2656,21.0156 57.3281,21.375 C57.4531,22.0469 57.7031,22.2969 58.2344,22.2969 C58.5156,22.2969 58.7969,22.1563 58.9844,21.9375 C59.1094,21.7656 59.1563,21.5938 59.1563,21.1563 L59.1563,19.7969 C59.1563,19.375 59.1406,19.2344 59.0156,19.0625 C58.8438,18.8125 58.5625,18.6563 58.2344,18.6563 C57.9219,18.6563 57.7188,18.7656 57.5,19.0313 C56.3281,18.5313 55.8906,18.4219 54.9375,18.4219 C52.2656,18.4219 50.25,20.4375 50.25,23.0625 L50.25,24.1563 Z " fill="#000000"/><text fill="#000000" font-family="sans-serif" font-size="14" lengthAdjust="spacing" textLength="75" x="75.75" y="27.606">ParsedData</text><line style="stroke:#181818;stroke-width:0.5;" x1="8" x2="186" y1="39" y2="39"/><rect fill="none" height="6" style="stroke:#C82930;stroke-width:1.0;" width="6" x="15" y="49.9"/><text fill="#000000" font-family="sans-serif" font-size="14" lengthAdjust="spacing" textLength="154" x="27" y="56.0059">alleles: ArrayList&lt;Allele&gt;</text><rect fill="none" height="6" style="stroke:#C82930;stroke-width:1.0;" width="6" x="15" y="66.6999"/><text fill="#000000" font-family="sans-serif" font-size="14" lengthAdjust="spacing" textLength="73" x="27" y="72.8059">courses: int</text><rect fill="none" height="6" style="stroke:#C82930;stroke-width:1.0;" width="6" x="15" y="83.4998"/><text fill="#000000" font-family="sans-serif" font-size="14" lengthAdjust="spacing" textLength="89" x="27" y="89.6058">population: int</text><line style="stroke:#181818;stroke-width:0.5;" x1="8" x2="186" y1="97.3998" y2="97.3998"/><ellipse cx="18" cy="111.2997" fill="#84BE84" rx="3" ry="3" style="stroke:#038048;stroke-width:1.0;"/><text fill="#000000" font-family="sans-serif" font-size="14" lengthAdjust="spacing" textLength="104" x="27" y="114.4057">toString(): String</text></g><!--SRC=[Iyv9B2vM24WiAavDSKaiILIevb800bs5n9oSr9pKOYi5nwAYn4gVpE8I6qUma1rKGN9-AL0JK45cNWbKg22_e3GdiIGpFmyY2XRMLYZ93oufoinBrz2qKe2mk6e1]--></g></svg>