<?xml version="1.0" encoding="us-ascii" standalone="no"?><svg xmlns="http://www.w3.org/2000/svg" xmlns:xlink="http://www.w3.org/1999/xlink" contentStyleType="text/css" height="186px" preserveAspectRatio="none" style="width:257px;height:186px;background:#FFFFFF;" version="1.1" viewBox="0 0 257 186" width="257px" zoomAndPan="magnify"><defs/><g><!--class Professor--><g id="elem_Professor"><rect codeLine="1" fill="#F1F1F1" height="165.5995" id="Professor" rx="2.5" ry="2.5" style="stroke:#181818;stroke-width:0.5;" width="236" x="7" y="7"/><ellipse cx="90.25" cy="23" fill="#ADD1B2" rx="11" ry="11" style="stroke:#181818;stroke-width:1.0;"/><path d="M85.25,24.1563 C85.25,26.6563 87.3906,28.4688 90.3125,28.4688 C91.5469,28.4688 92.7188,28.1719 93.4688,27.6563 C94.0781,27.2344 94.4063,26.8125 94.4063,26.4063 C94.4063,25.9375 93.9844,25.5313 93.4844,25.5313 C93.25,25.5313 93.0313,25.6094 92.8281,25.8125 C92.3906,26.25 92.3906,26.25 92.2188,26.3438 C91.7656,26.5781 91.125,26.7188 90.3594,26.7188 C88.3594,26.7188 87.0781,25.7031 87.0781,24.125 L87.0781,23.0781 C87.0781,21.375 88.2969,20.1719 90,20.1719 C90.5781,20.1719 91.1563,20.3125 91.625,20.5625 C92.0938,20.8281 92.2656,21.0156 92.3281,21.375 C92.4531,22.0469 92.7031,22.2969 93.2344,22.2969 C93.5156,22.2969 93.7969,22.1563 93.9844,21.9375 C94.1094,21.7656 94.1563,21.5938 94.1563,21.1563 L94.1563,19.7969 C94.1563,19.375 94.1406,19.2344 94.0156,19.0625 C93.8438,18.8125 93.5625,18.6563 93.2344,18.6563 C92.9219,18.6563 92.7188,18.7656 92.5,19.0313 C91.3281,18.5313 90.8906,18.4219 89.9375,18.4219 C87.2656,18.4219 85.25,20.4375 85.25,23.0625 L85.25,24.1563 Z " fill="#000000"/><text fill="#000000" font-family="sans-serif" font-size="14" lengthAdjust="spacing" textLength="61" x="110.75" y="27.606">Professor</text><line style="stroke:#181818;stroke-width:0.5;" x1="8" x2="242" y1="39" y2="39"/><rect fill="none" height="6" style="stroke:#C82930;stroke-width:1.0;" width="6" x="15" y="49.9"/><text fill="#000000" font-family="sans-serif" font-size="14" lengthAdjust="spacing" textLength="81" x="27" y="56.0059">name: String</text><rect fill="none" height="6" style="stroke:#C82930;stroke-width:1.0;" width="6" x="15" y="66.6999"/><text fill="#000000" font-family="sans-serif" font-size="14" lengthAdjust="spacing" textLength="57" x="27" y="72.8059">index: int</text><line style="stroke:#181818;stroke-width:0.5;" x1="8" x2="242" y1="80.5999" y2="80.5999"/><ellipse cx="18" cy="94.4998" fill="#84BE84" rx="3" ry="3" style="stroke:#038048;stroke-width:1.0;"/><text fill="#000000" font-family="sans-serif" font-size="14" lengthAdjust="spacing" textLength="152" x="27" y="97.6058">Professor(name: String)</text><ellipse cx="18" cy="111.2997" fill="#84BE84" rx="3" ry="3" style="stroke:#038048;stroke-width:1.0;"/><text fill="#000000" font-family="sans-serif" font-size="14" lengthAdjust="spacing" textLength="113" x="27" y="114.4057">getName(): String</text><ellipse cx="18" cy="128.0997" fill="#84BE84" rx="3" ry="3" style="stroke:#038048;stroke-width:1.0;"/><text fill="#000000" font-family="sans-serif" font-size="14" lengthAdjust="spacing" textLength="210" x="27" y="131.2057">setName(newName: String): void</text><ellipse cx="18" cy="144.8996" fill="#84BE84" rx="3" ry="3" style="stroke:#038048;stroke-width:1.0;"/><text fill="#000000" font-family="sans-serif" font-size="14" lengthAdjust="spacing" textLength="88" x="27" y="148.0056">getIndex(): int</text><ellipse cx="18" cy="161.6995" fill="#84BE84" rx="3" ry="3" style="stroke:#038048;stroke-width:1.0;"/><text fill="#000000" font-family="sans-serif" font-size="14" lengthAdjust="spacing" textLength="104" x="27" y="164.8055">toString(): String</text></g><!--SRC=[Iyv9B2vM22ZAJqijBiulKgZcKb3GLSXBp4srKWWkAShCImSBPEQbf5PO0QaIBY1V6w510rcf9bWkFRN43oYeeObaWhP2CLGqBxNS3rcBbK9PVcOAJACdo1wGJf1D8B6IV8Ww9DDg0G00]--></g></svg>