<?xml version="1.0" encoding="us-ascii" standalone="no"?><svg xmlns="http://www.w3.org/2000/svg" xmlns:xlink="http://www.w3.org/1999/xlink" contentStyleType="text/css" height="136px" preserveAspectRatio="none" style="width:138px;height:136px;background:#FFFFFF;" version="1.1" viewBox="0 0 138 136" width="138px" zoomAndPan="magnify"><defs/><g><!--class ReturnOption--><g id="elem_ReturnOption"><rect codeLine="1" fill="#F1F1F1" height="115.1997" id="ReturnOption" rx="2.5" ry="2.5" style="stroke:#181818;stroke-width:0.5;" width="117" x="7" y="7"/><ellipse cx="22" cy="23" fill="#EB937F" rx="11" ry="11" style="stroke:#181818;stroke-width:1.0;"/><path d="M20.8594,24.0625 L22.1719,24.0625 L22.1719,24.1094 C22.1719,24.5156 22.1875,24.6719 22.2969,24.8281 C22.4688,25.0781 22.7656,25.25 23.0781,25.25 C23.3594,25.25 23.6563,25.1094 23.8281,24.8906 C23.9531,24.7031 24,24.5625 24,24.1094 L24,22.2656 C24,21.9375 23.9844,21.8281 23.9219,21.6563 C23.8125,21.3594 23.4531,21.1094 23.0781,21.1094 C22.7813,21.1094 22.5156,21.25 22.3438,21.4688 C22.2031,21.6563 22.1719,21.8281 22.1719,22.2656 L22.1719,22.3281 L20.8594,22.3281 L20.8594,20.1563 L24.7031,20.1563 L24.7031,20.9063 C24.7031,21.2969 24.7344,21.4844 24.8438,21.6406 C25.0156,21.8906 25.3125,22.0625 25.625,22.0625 C25.9219,22.0625 26.1875,21.9375 26.375,21.7031 C26.5156,21.5156 26.5469,21.375 26.5469,20.9063 L26.5469,18.4063 L18.8438,18.4063 C18.3906,18.4063 18.2656,18.4219 18.0938,18.5313 C17.8281,18.7031 17.6563,18.9688 17.6563,19.2813 C17.6563,19.5625 17.7813,19.8281 18.0313,20 C18.2188,20.125 18.4063,20.1563 18.8438,20.1563 L19.0313,20.1563 L19.0313,26.25 L18.8438,26.25 C18.4219,26.25 18.2656,26.2813 18.0938,26.375 C17.8281,26.5313 17.6563,26.8125 17.6563,27.1094 C17.6563,27.6875 18.0625,28 18.8438,28 L26.9219,28 L26.9219,25.4688 C26.9219,25.0625 26.8906,24.8906 26.7813,24.7344 C26.6094,24.4688 26.3281,24.3125 26,24.3125 C25.7188,24.3125 25.4375,24.4531 25.25,24.6719 C25.1094,24.8594 25.0781,25.0156 25.0781,25.4688 L25.0781,26.25 L20.8594,26.25 L20.8594,24.0625 Z " fill="#000000"/><text fill="#000000" font-family="sans-serif" font-size="14" lengthAdjust="spacing" textLength="85" x="36" y="27.606">ReturnOption</text><line style="stroke:#181818;stroke-width:0.5;" x1="8" x2="123" y1="39" y2="39"/><rect fill="none" height="6" style="stroke:#C82930;stroke-width:1.0;" width="6" x="15" y="49.9"/><text fill="#000000" font-family="sans-serif" font-size="14" lengthAdjust="spacing" textLength="40" x="27" y="56.0059">VALID</text><rect fill="none" height="6" style="stroke:#C82930;stroke-width:1.0;" width="6" x="15" y="66.6999"/><text fill="#000000" font-family="sans-serif" font-size="14" lengthAdjust="spacing" textLength="54" x="27" y="72.8059">INVALID</text><rect fill="none" height="6" style="stroke:#C82930;stroke-width:1.0;" width="6" x="15" y="83.4998"/><text fill="#000000" font-family="sans-serif" font-size="14" lengthAdjust="spacing" textLength="88" x="27" y="89.6058">NOT_FOUND</text><rect fill="none" height="6" style="stroke:#C82930;stroke-width:1.0;" width="6" x="15" y="100.2997"/><text fill="#000000" font-family="sans-serif" font-size="14" lengthAdjust="spacing" textLength="84" x="27" y="106.4057">BACKTRACK</text><line style="stroke:#181818;stroke-width:0.5;" x1="8" x2="123" y1="114.1997" y2="114.1997"/></g><!--SRC=[IyqhpLK8IYqfBShpBoZ9pCzJgEPIKD1L27FqyNG1ippz46m__v1uD_zGFmZFoT7PEoG8I73L0W00]--></g></svg>